<?xml version="1.0" encoding="utf-8"?>
<!-- Generator: Adobe Illustrator 25.3.0, SVG Export Plug-In . SVG Version: 6.00 Build 0)  -->
<svg version="1.1" id="DARTS" xmlns="http://www.w3.org/2000/svg" xmlns:xlink="http://www.w3.org/1999/xlink" x="0px" y="0px"
	 viewBox="0 0 54.13 25" style="enable-background:new 0 0 54.13 25;" xml:space="preserve">
<style type="text/css">
	.st0{fill:#FFFFFF;}
</style>
<g>
	<path class="st0" d="M14.28,16.62l0.52-0.41c-0.81-0.01-1.54-0.02-3.28-0.04c1.81-0.02,2.53-0.03,3.38-0.04l0.52-0.41
		c-0.81-0.01-1.54-0.02-3.27-0.04c1.81-0.02,2.53-0.03,3.38-0.04l0.51-0.4c-0.81-0.01-1.53-0.02-3.27-0.04
		c1.81-0.02,2.52-0.03,3.37-0.04l0.51-0.4c-0.8-0.01-1.53-0.02-3.25-0.04c1.8-0.02,2.51-0.03,3.36-0.04l0.53-0.41
		c-0.8-0.01-1.53-0.02-3.25-0.04c1.8-0.02,2.51-0.03,3.35-0.04l0.53-0.41c-0.8-0.01-1.53-0.02-3.25-0.04
		c1.79-0.02,2.51-0.03,3.35-0.04l0.51-0.4c-0.8-0.01-1.53-0.02-3.24-0.04c1.79-0.02,2.51-0.03,3.34-0.04l0.53-0.41
		c-0.79-0.01-1.53-0.02-3.24-0.04c1.79-0.02,2.51-0.03,3.34-0.04l0.51-0.4c-0.79-0.01-1.52-0.02-3.23-0.04
		c1.78-0.02,2.5-0.03,3.33-0.04l0.53-0.41c-0.79-0.01-1.52-0.02-3.22-0.04c1.77-0.02,2.5-0.03,3.32-0.04l0.51-0.4
		c-0.79-0.01-1.52-0.02-3.22-0.04c1.77-0.02,2.49-0.03,3.32-0.04l0.53-0.41c-0.78-0.01-1.52-0.02-3.22-0.04
		c1.77-0.02,2.49-0.03,3.32-0.04l0.51-0.4c-0.78-0.01-1.51-0.02-3.2-0.04c1.76-0.02,2.48-0.03,3.3-0.04l0.53-0.41
		c-0.78-0.01-1.51-0.02-3.2-0.04c1.76-0.02,2.48-0.03,3.3-0.04l0.53-0.41C22.74,9.4,22,9.39,20.33,9.37
		c1.75-0.02,2.47-0.03,3.28-0.04l0.52-0.4c-0.78-0.01-1.51-0.02-3.19-0.04c1.75-0.02,2.48-0.03,3.29-0.04l0.52-0.4
		c-0.77-0.01-1.51-0.02-3.17-0.04c1.74-0.02,2.47-0.03,3.27-0.04l0.54-0.42c-0.77-0.01-1.51-0.02-3.17-0.04
		c1.74-0.02,2.47-0.03,3.27-0.04l0.5-0.39c-0.77-0.01-1.51-0.02-3.17-0.04c1.73-0.02,2.46-0.03,3.27-0.04l0.53-0.41
		c-0.77-0.01-1.5-0.02-3.16-0.04c1.73-0.02,2.46-0.03,3.26-0.04l0.52-0.4c-0.76-0.01-1.5-0.02-3.15-0.04
		c1.72-0.02,2.45-0.03,3.25-0.04l0.54-0.42C27.11,6,26.38,5.99,24.73,5.97c1.72-0.02,2.44-0.03,3.24-0.04l0.52-0.4
		c-0.76-0.01-1.5-0.02-3.14-0.04c1.72-0.02,2.45-0.03,3.24-0.04l0.53-0.41C28.36,5.03,27.62,5.02,25.98,5
		c1.71-0.02,2.44-0.03,3.23-0.04l0.52-0.41c-0.74-0.01-1.48-0.02-3.1-0.04c1.68-0.02,2.42-0.03,3.19-0.04l0.53-0.41
		c-0.74-0.01-1.48-0.02-3.09-0.04c1.69-0.02,2.42-0.03,3.19-0.04l0.52-0.41c-0.74-0.01-1.48-0.02-3.09-0.04
		c1.68-0.02,2.41-0.03,3.19-0.04l0.52-0.41c-0.74-0.01-1.48-0.02-3.07-0.03c1.66-0.02,2.4-0.03,3.17-0.04l0.53-0.42
		c-0.73-0.01-1.48-0.02-3.07-0.03c1.66-0.02,2.4-0.03,3.17-0.04l0.52-0.41c-0.73-0.01-1.48-0.02-3.07-0.03
		c1.66-0.02,2.4-0.03,3.16-0.04l0.53-0.42c-0.73-0.01-1.48-0.02-3.06-0.03c1.66-0.02,2.39-0.03,3.16-0.04l0.52-0.41
		c-0.73-0.01-1.47-0.02-3.05-0.03c1.64-0.02,2.38-0.03,3.14-0.04l0.53-0.42c-0.73-0.01-1.47-0.02-3.06-0.03
		c1.65-0.02,2.39-0.03,3.15-0.04l0.52-0.41c-0.73-0.01-1.47-0.02-3.04-0.03c1.64-0.02,2.38-0.03,3.14-0.04L35.56,0H32L0,24.99h3.56
		l0.05-0.04c-0.85-0.01-1.56-0.02-3.37-0.04c1.88-0.02,2.58-0.03,3.48-0.04l0.52-0.41c-0.86-0.01-1.57-0.02-3.39-0.04
		c1.9-0.02,2.59-0.03,3.5-0.04l0.52-0.41c-0.86-0.01-1.57-0.02-3.39-0.04c1.89-0.02,2.59-0.03,3.49-0.04l0.52-0.41
		c-0.85-0.01-1.57-0.02-3.39-0.04C4,23.42,4.7,23.41,5.6,23.4L6.11,23c-0.85-0.01-1.57-0.02-3.38-0.04
		c1.89-0.02,2.59-0.03,3.49-0.04l0.52-0.41c-0.85-0.01-1.56-0.02-3.37-0.04c1.88-0.02,2.58-0.03,3.47-0.04l0.51-0.4
		c-0.85-0.01-1.56-0.02-3.37-0.04c1.88-0.02,2.58-0.03,3.48-0.04l0.51-0.4c-0.84-0.01-1.56-0.02-3.36-0.04
		c1.87-0.02,2.57-0.03,3.46-0.04l0.51-0.4c-0.82-0.01-1.54-0.02-3.3-0.04c1.83-0.02,2.54-0.03,3.41-0.04l0.52-0.41
		c-0.83-0.01-1.55-0.02-3.32-0.04c1.85-0.02,2.55-0.03,3.42-0.04l0.54-0.42c-0.83-0.01-1.55-0.02-3.32-0.04
		c1.84-0.02,2.55-0.03,3.42-0.04l0.51-0.39c-0.82-0.01-1.54-0.02-3.3-0.04c1.83-0.02,2.54-0.03,3.41-0.04l0.52-0.41
		c-0.82-0.01-1.55-0.02-3.31-0.04c1.84-0.02,2.55-0.03,3.41-0.04l0.51-0.4c-0.82-0.01-1.54-0.02-3.29-0.04
		c1.83-0.02,2.54-0.03,3.4-0.04l0.52-0.41c-0.81-0.01-1.54-0.02-3.29-0.04c1.83-0.02,2.54-0.03,3.4-0.04l0.51-0.4
		c-0.81-0.01-1.54-0.02-3.29-0.04c1.82-0.02,2.53-0.03,3.39-0.04l0.52-0.41c-0.82-0.01-1.54-0.02-3.29-0.04
		c1.83-0.02,2.54-0.03,3.4-0.04l0.51-0.4c-0.81-0.01-1.54-0.02-3.28-0.04C12.72,16.64,13.43,16.63,14.28,16.62z"/>
	<polygon class="st0" points="29.6,16.83 31,12.54 25.45,16.83 	"/>
	<path class="st0" d="M15.9,21.11l-4.33-0.01l-0.43,0.34l4.09-0.04c0.43-0.01,0.81-0.01,1.16-0.01l-0.27,0.21c-0.27,0-0.56,0-0.88,0
		l-4.29-0.02l-0.43,0.34l4.08-0.04c0.43-0.01,0.81-0.01,1.16-0.01l-0.27,0.21c-0.27,0-0.56,0-0.88,0l-4.27-0.02L9.91,22.4l4.06-0.03
		c0.43-0.01,0.81-0.01,1.16-0.01l-0.27,0.21c-0.27,0-0.56,0-0.88,0l-4.26-0.03l-0.44,0.35l4.07-0.04c0.43-0.01,0.81-0.01,1.16-0.01
		l-0.27,0.21c-0.27,0-0.56,0-0.88,0L9.1,23.03l-0.43,0.34l4.06-0.03c0.42-0.01,0.8-0.01,1.15-0.01l-0.27,0.21c-0.27,0-0.56,0-0.88,0
		l-4.25-0.03l-0.44,0.35l4.06-0.04c0.42-0.01,0.8-0.01,1.15-0.01l-0.27,0.21c-0.27,0-0.56,0-0.87,0L7.86,24l-0.44,0.35l4.06-0.04
		c0.42-0.01,0.8-0.01,1.15-0.01l-0.27,0.21c-0.27,0-0.56,0-0.87,0l-4.25-0.02l-0.44,0.35l4.05-0.04c0.42-0.01,0.81-0.01,1.16-0.01
		l-0.27,0.2h10.42l6.43-5.02l0.48-1.48H23.3l-3.39,2.62h-3.16l0.28-0.2c-0.01,0-0.02,0-0.03,0l-0.26,0.2
		C16.47,21.11,16.21,21.11,15.9,21.11z"/>
	<path class="st0" d="M12.83,20.11l-0.46,0.36l4.13-0.04c0.42-0.01,0.78-0.01,1.12-0.01L18,20.14c-0.26,0-0.54,0-0.85,0L12.83,20.11
		z"/>
	<path class="st0" d="M13.44,19.64l-0.43,0.34l4.14-0.04c0.41-0.01,0.79-0.01,1.13-0.01l0.35-0.27c-0.26,0-0.53,0-0.84,0
		L13.44,19.64z"/>
	<path class="st0" d="M12.19,20.61l-0.44,0.35l4.15-0.04c0.41-0.01,0.77-0.01,1.1-0.01l0.36-0.28c-0.26,0-0.54,0-0.84,0L12.19,20.61
		z"/>
	<polygon class="st0" points="6.59,24.99 8.63,24.99 6.6,24.98 	"/>
	<path class="st0" d="M14.68,18.67l-0.43,0.34l4.14-0.04c0.41-0.01,0.79-0.01,1.13-0.01l-0.27,0.21c-0.26,0-0.54,0-0.85,0
		l-4.34-0.02l-0.44,0.35l4.15-0.04c0.42-0.01,0.78-0.01,1.12-0.01l0.98-0.76c-0.26,0-0.53,0-0.84,0L14.68,18.67z"/>
	<polygon class="st0" points="14.87,18.52 14.86,18.53 17.12,18.51 	"/>
	<path class="st0" d="M25.25,10.42C25.25,10.42,25.25,10.42,25.25,10.42l-0.44,0.34l4.24-0.04c0.42-0.01,0.8-0.01,1.14-0.01
		l-0.27,0.21c-0.26,0-0.55,0-0.86,0l-4.43-0.02l-0.45,0.35l4.24-0.04c0.42-0.01,0.8-0.01,1.14-0.01l-0.19,0.15l1.18-0.91
		c-0.26,0-0.55,0-0.85,0L25.25,10.42z"/>
	<path class="st0" d="M25.88,9.93C25.88,9.93,25.88,9.93,25.88,9.93l-0.45,0.35l4.25-0.04c0.42-0.01,0.8-0.01,1.14-0.01l0.36-0.28
		c-0.26,0-0.55,0-0.86,0L25.88,9.93z"/>
	<path class="st0" d="M38.59,0l-0.12,0.09l4.41-0.04c0.41-0.01,0.78-0.01,1.12-0.01l-0.27,0.21c-0.26,0-0.55,0-0.85,0l-4.42-0.02
		c-0.06,0-0.11,0-0.16,0l-0.44,0.34l4.39-0.04c0.41-0.01,0.78-0.01,1.12-0.01L43.1,0.73c-0.26,0-0.55,0-0.85,0l-4.42-0.02
		c-0.05,0-0.1,0-0.15,0l-0.45,0.35l4.4-0.04c0.41-0.01,0.78-0.01,1.12-0.01l-0.27,0.21c-0.26,0-0.55,0-0.85,0L37.21,1.2
		c-0.06,0-0.1,0-0.15,0l-0.44,0.34L41,1.5c0.41-0.01,0.78-0.01,1.12-0.01L41.85,1.7c-0.26,0-0.55,0-0.85,0l-4.42-0.02
		c-0.05,0-0.09,0-0.14,0l-0.45,0.35l4.38-0.04c0.41-0.01,0.78-0.01,1.12-0.01l-0.27,0.21c-0.27,0-0.55,0-0.85,0l-4.42-0.02
		c-0.05,0-0.09,0-0.14,0l-0.44,0.34l4.37-0.04c0.41-0.01,0.78-0.01,1.12-0.01L40.6,2.67c-0.26,0-0.55,0-0.85,0l-4.42-0.02
		c-0.05,0-0.09,0-0.13,0L34.75,3l4.35-0.04c0.41-0.01,0.8-0.01,1.14-0.01l-0.27,0.21c-0.27,0-0.55,0-0.85,0L34.7,3.14
		c-0.05,0-0.08,0-0.13,0l-0.44,0.34l4.34-0.04c0.41-0.01,0.8-0.01,1.14-0.01l-0.27,0.21c-0.27,0-0.55,0-0.85,0l-4.43-0.02
		c-0.04,0-0.07,0-0.1,0l-0.45,0.35l4.35-0.04c0.41-0.01,0.78-0.01,1.12-0.01l-0.27,0.21c-0.27,0-0.55,0-0.85,0L33.44,4.1
		c-0.04,0-0.07,0-0.1,0l-0.45,0.35l4.35-0.04c0.41-0.01,0.78-0.01,1.12-0.01l-0.27,0.21c-0.27,0-0.55,0-0.85,0l-4.43-0.02
		c-0.03,0-0.06,0-0.1,0l-0.45,0.35l4.32-0.04c0.42-0.01,0.8-0.01,1.14-0.01L37.45,5.1c-0.26,0-0.55,0-0.86,0l-4.43-0.03
		c-0.02,0-0.04,0-0.06,0l-0.45,0.35l4.3-0.04c0.42-0.01,0.8-0.01,1.14-0.01l-0.27,0.21c-0.26,0-0.55,0-0.86,0l-4.44-0.02
		c-0.02,0-0.03,0-0.05,0L31.03,5.9l4.3-0.03c0.42-0.01,0.8-0.01,1.14-0.01L36.2,6.07c-0.26,0-0.55,0-0.86,0l-4.43-0.03
		c-0.02,0-0.04,0-0.05,0L30.39,6.4l4.31-0.04c0.42-0.01,0.8-0.01,1.14-0.01l-0.27,0.21c-0.26,0-0.55,0-0.86,0l-4.44-0.02
		c-0.02,0-0.04,0-0.06,0l-0.43,0.34l4.29-0.04c0.42-0.01,0.8-0.01,1.14-0.01l-0.27,0.21c-0.26,0-0.55,0-0.86,0l-4.44-0.02
		c-0.01,0-0.03,0-0.04,0l-0.45,0.35l4.29-0.04c0.42-0.01,0.8-0.01,1.14-0.01l-0.27,0.21c-0.26,0-0.55,0-0.86,0l-4.44-0.02
		c-0.01,0-0.02,0-0.04,0l-0.42,0.33l4.27-0.03c0.42-0.01,0.8-0.01,1.14-0.01l-0.27,0.21c-0.26,0-0.55,0-0.86,0L28.4,7.98
		c-0.01,0-0.02,0-0.03,0l-0.46,0.36l4.28-0.04c0.42-0.01,0.8-0.01,1.14-0.01L33.06,8.5c-0.26,0-0.55,0-0.86,0l-4.44-0.02
		c-0.01,0-0.02,0-0.03,0L27.3,8.82l4.26-0.04c0.42-0.01,0.8-0.01,1.14-0.01l-0.27,0.21c-0.26,0-0.55,0-0.86,0l-4.44-0.02
		c-0.01,0-0.01,0-0.02,0L26.68,9.3l4.24-0.04c0.42,0,0.8,0,1.14,0l-0.23,0.18l0.24-0.18h2.56l-2.47,7.57h0.44L54.13,0H38.59z"/>
	<path class="st0" d="M26.52,9.44c-0.01,0-0.01,0-0.02,0l-0.45,0.35l4.24-0.04c0.42-0.01,0.82-0.01,1.16-0.01l0.35-0.27
		c-0.26,0-0.55,0-0.86,0L26.52,9.44z"/>
	<path class="st0" d="M24,11.39l-0.43,0.34l4.23-0.04c0.42-0.01,0.8-0.01,1.14-0.01l-0.06,0.04l0.41-0.31c-0.26,0-0.55,0-0.86,0
		L24,11.39z"/>
	<path class="st0" d="M18.71,16.74l-0.03,0.09h3.6l0.1-0.08c-0.26,0-0.55,0-0.85,0L18.71,16.74z"/>
	<path class="st0" d="M19.65,14.79l-0.43,0.34l4.18-0.04c0.42-0.01,0.8-0.01,1.14-0.01l-0.27,0.21c-0.26,0-0.55,0-0.86,0l-4.25-0.02
		l-0.1,0.33l3.72-0.03c0.42-0.01,0.8-0.01,1.14-0.01l-0.27,0.21c-0.26,0-0.55,0-0.86,0l-3.78-0.02l-0.1,0.34l3.24-0.03
		c0.42-0.01,0.8-0.01,1.14-0.01l1.6-1.24c-0.26,0-0.55,0-0.85,0L19.65,14.79z"/>
	<path class="st0" d="M20.28,14.3l-0.45,0.35l4.2-0.04c0.42-0.01,0.8-0.01,1.13-0.01l0.36-0.28c-0.26,0-0.55,0-0.86,0L20.28,14.3z"
		/>
	<path class="st0" d="M18.86,16.25l-0.1,0.33l2.76-0.02c0.42-0.01,0.8-0.01,1.14-0.01l0.36-0.28c-0.26,0-0.55,0-0.86,0L18.86,16.25z
		"/>
	<path class="st0" d="M20.9,13.81l-0.45,0.35l4.2-0.04c0.42-0.01,0.8-0.01,1.14-0.01l0.36-0.28c-0.26,0-0.55,0-0.86,0L20.9,13.81z"
		/>
	<path class="st0" d="M22.76,12.36l-0.43,0.34l4.21-0.04c0.42-0.01,0.8-0.01,1.14-0.01l-0.27,0.21c-0.26,0-0.55,0-0.86,0l-4.4-0.02
		l-0.45,0.35l4.21-0.04c0.42-0.01,0.8-0.01,1.14-0.01l-0.27,0.21c-0.26,0-0.55,0-0.86,0l-4.4-0.02l-0.43,0.34l4.2-0.04
		c0.42-0.01,0.8-0.01,1.14-0.01l-0.24,0.19l1.85-1.43c-0.26,0-0.55,0-0.86,0L22.76,12.36z"/>
	<path class="st0" d="M23.39,11.87l-0.45,0.35l4.23-0.04c0.42-0.01,0.8-0.01,1.14-0.01l0.36-0.28c-0.26,0-0.55,0-0.86,0L23.39,11.87
		z"/>
	<polygon class="st0" points="31.8,9.47 31.83,9.44 31.8,9.47 	"/>
	<polygon class="st0" points="28.67,11.89 28.88,11.72 28.67,11.89 	"/>
	<polygon class="st0" points="29.29,11.41 29.37,11.35 29.29,11.41 	"/>
	<polygon class="st0" points="30.55,10.44 30.82,10.23 30.82,10.23 30.54,10.44 	"/>
	<polygon class="st0" points="31.18,9.95 31.45,9.74 31.45,9.74 31.18,9.95 	"/>
	<polygon class="st0" points="28.04,12.38 28.31,12.17 28.31,12.17 28.04,12.38 	"/>
	<polygon class="st0" points="17.37,20.63 17.64,20.42 17.63,20.42 17.36,20.63 	"/>
	<polygon class="st0" points="18,20.14 18.27,19.93 18.27,19.93 18,20.14 	"/>
	<path class="st0" d="M18.63,19.66l0.27-0.21c0,0-0.01,0-0.01,0l-0.27,0.21C18.62,19.66,18.63,19.66,18.63,19.66z"/>
	<path class="st0" d="M10.83,25c0.32,0,0.62,0,0.89,0l0.01-0.01h-3.1L10.83,25z"/>
	<polygon class="st0" points="22.39,16.75 22.66,16.54 22.66,16.54 22.38,16.75 	"/>
	<path class="st0" d="M19.87,18.69C19.87,18.69,19.88,18.69,19.87,18.69l0.28-0.21c-0.34,0-0.71,0-1.13,0.01l-1.9,0.02l3.01-0.02
		L19.87,18.69z"/>
	<polygon class="st0" points="25.53,14.32 25.8,14.11 25.8,14.11 25.53,14.32 	"/>
	<polygon class="st0" points="24.9,14.81 25.17,14.6 25.16,14.6 24.89,14.81 	"/>
	<polygon class="st0" points="26.16,13.83 26.19,13.81 26.16,13.83 	"/>
	<polygon class="st0" points="23.02,16.26 23.29,16.05 23.29,16.05 23.02,16.26 	"/>
</g>
</svg>
