<?xml version="1.0" encoding="utf-8"?>
<!-- Generator: Adobe Illustrator 25.3.1, SVG Export Plug-In . SVG Version: 6.00 Build 0)  -->
<svg version="1.1" id="AlfaRomeo" xmlns="http://www.w3.org/2000/svg" xmlns:xlink="http://www.w3.org/1999/xlink" x="0px" y="0px"
	 viewBox="0 0 25 25" style="enable-background:new 0 0 25 25;" xml:space="preserve">
<path id="Gold_Outline" d="M12.5,0C8.2,0,4,2.2,1.7,6.2c-3.5,6-1.4,13.6,4.6,17.1s13.6,1.4,17.1-4.6s1.4-13.6-4.6-17.1
	C16.8,0.5,14.6,0,12.5,0z M12.5,0.6c6.6,0,11.9,5.3,11.9,11.9s-5.3,11.9-11.9,11.9S0.6,19.1,0.6,12.5S5.9,0.6,12.5,0.6z M11.8,1v2.5
	h0.8V2.7l0.6,0.8l1,0.1l-0.9-1.1c0.2,0,0.5-0.2,0.5-0.7c0-0.6-0.6-0.8-0.9-0.8L11.8,1z M12.7,1.6c0.2,0,0.4,0.1,0.4,0.3
	c0,0.1-0.1,0.3-0.3,0.3h-0.2l0-0.6L12.7,1.6z M16.3,1.7C16.3,1.7,16.2,1.7,16.3,1.7c-0.7,0-1.2,0.4-1.4,1s0.4,1.4,1.2,1.6
	c0.8,0.2,1.5-0.2,1.6-1c0.1-0.7-0.4-1.4-1.2-1.6C16.5,1.7,16.4,1.7,16.3,1.7z M7.2,2.3L6.5,2.7l0.3,2.8L7.5,5L7.4,4.5l0.8-0.5
	l0.4,0.3L9.4,4L7.2,2.3z M16.3,2.4c0,0,0.1,0,0.1,0C16.8,2.5,17,2.8,17,3.1c-0.1,0.3-0.4,0.6-0.8,0.5c-0.4-0.1-0.6-0.4-0.5-0.8
	C15.8,2.6,16,2.4,16.3,2.4z M7.2,3.2l0.6,0.4L7.4,3.9L7.2,3.2z M19.8,3.6l-2.1,1.5l0.6,0.5l1-0.8L18.8,6L19,6.3l1.3-0.5l-0.8,1.1
	L20,7.5l1.5-2.1L21,4.8l-1.2,0.5L20.3,4L19.8,3.6z M12.5,3.9c-4.7,0-8.6,3.8-8.6,8.6c0,4.7,3.8,8.6,8.6,8.6c4.7,0,8.6-3.9,8.6-8.6
	S17.2,3.9,12.5,3.9z M4.6,4.2l-1,1.2L5.4,7l0.5-0.6L5.2,5.8l0.5-0.5L5.3,4.8L4.8,5.4L4.5,5.2l0.5-0.6L4.6,4.2z M12.3,4.2v6.8H9.7
	V4.7C10.5,4.4,11.4,4.2,12.3,4.2z M12.7,4.2c3.1,0.1,5.9,1.9,7.2,4.5c0,0,0-0.1,0-0.1c-0.3-0.4-0.7-0.7-1.1-0.9c0,0-0.1,0-0.1,0
	c0,0-0.1,0-0.1,0.1C18.4,7.9,18.3,8,18.1,8h-1.5c-0.1,0-0.1,0-0.2,0.1c-0.1,0.1-0.1,0.1-0.1,0.2v0.2c0,0,0,0,0,0s0,0-0.1,0h-1.3V8.4
	l0,0l0,0c0-0.2-0.1-0.4-0.3-0.5l0,0l0,0L14,7.5l0,0l0,0c-0.1-0.1-0.2-0.1-0.3-0.1c0,0-0.1,0-0.1,0c-0.1,0-0.2,0.1-0.3,0.2
	c-0.1,0.2-0.1,0.5,0.1,0.7l0.3,0.2l0,0l0,0c0.1,0,0.1,0.1,0.1,0.1l0,0.4l0,0l0,0c0,0,0,0,0,0c0,0,0,0-0.1,0c-0.1,0-0.1-0.1-0.2-0.1
	C13.5,9,13.4,9,13.3,9c-0.2,0-0.4,0.1-0.5,0.2c0,0.1-0.1,0.1-0.1,0.1L12.7,4.2L12.7,4.2z M9.3,4.9v6.5h3v1.9h-3v6.8
	C8.6,19.8,8,19.5,7.4,19v-5.7H4.3c0-0.3,0-0.5,0-0.8c0-0.4,0-0.8,0.1-1.1h3.1V6C8,5.5,8.6,5.2,9.3,4.9z M14.9,6.1
	c-0.1,0-0.2,0.1-0.2,0.2s0.1,0.2,0.2,0.2c0.1,0,0.2-0.1,0.2-0.2C15.2,6.2,15.1,6.1,14.9,6.1z M15.6,6.1c-0.1,0-0.2,0.1-0.2,0.2
	c0,0.1,0.1,0.2,0.2,0.2c0.1,0,0.2-0.1,0.2-0.2C15.8,6.2,15.7,6.1,15.6,6.1z M16.2,6.1c-0.1,0-0.2,0.1-0.2,0.2s0.1,0.2,0.2,0.2
	c0.1,0,0.2-0.1,0.2-0.2S16.3,6.1,16.2,6.1z M16.8,6.1c-0.1,0-0.2,0.1-0.2,0.2s0.1,0.2,0.2,0.2c0.1,0,0.2-0.1,0.2-0.2
	S16.9,6.1,16.8,6.1z M17.4,6.1c-0.1,0-0.2,0.1-0.2,0.2c0,0.1,0.1,0.2,0.2,0.2c0.1,0,0.2-0.1,0.2-0.2S17.6,6.1,17.4,6.1z M7.1,6.3
	v4.8H4.4C4.7,9.2,5.7,7.5,7.1,6.3z M14.8,6.8v0.4h2.8V6.8H14.8z M14.8,7.3v0.4h2.8V7.3H14.8z M22.7,7.3l-2.2,0.9l0.6,1.5l0.6-0.2
	l-0.3-0.8l0.3-0.1l0.3,0.7l0.5-0.2l-0.3-0.7l0.3-0.1L22.7,9l0.5-0.2L22.7,7.3z M2.2,7.6L1.9,8.3l2.2,1l0.7-1.4L4.2,7.6L3.8,8.3
	L2.2,7.6z M13.7,7.8c0,0,0.1,0,0.1,0l0.6,0.4c0.1,0.1,0.1,0.1,0.1,0.2l0,0.5l0,0l0,0c0,0.2,0.1,0.4,0.2,0.5c0.1,0.1,0.2,0.1,0.3,0.2
	c-0.1,0-0.2,0.1-0.3,0.2c-0.1,0.1-0.2,0.3-0.2,0.5l0,0l0,0l0,0.5c0,0.1-0.1,0.2-0.1,0.2l-0.6,0.4c-0.1,0-0.1,0-0.1,0s-0.1,0-0.1-0.1
	c0-0.1-0.1-0.1,0.1-0.2l0,0l0,0l0.3-0.2c0.1-0.1,0.2-0.2,0.2-0.4l0,0l0,0l0-0.4c0-0.1,0-0.2-0.1-0.3c-0.1-0.1-0.2-0.1-0.4,0
	c-0.1,0-0.1,0.1-0.2,0.1s-0.1,0-0.2,0c-0.1,0-0.2-0.1-0.3-0.1c-0.1-0.1-0.1-0.2-0.1-0.2v0c0-0.1,0-0.2,0.1-0.2
	c0.1-0.1,0.1-0.1,0.3-0.1c0.1,0,0.1,0,0.2,0c0.1,0,0.1,0.1,0.2,0.1c0.1,0,0.3,0,0.4,0s0.1-0.2,0.1-0.3l0-0.4l0,0l0,0
	c0-0.2-0.1-0.3-0.2-0.4l-0.3-0.2l0,0l0,0c-0.1-0.1-0.1-0.2-0.1-0.2C13.6,7.8,13.6,7.8,13.7,7.8C13.7,7.8,13.7,7.8,13.7,7.8z
	 M18.7,8.1c0.3,0.2,0.6,0.4,0.9,0.8c0.3,0.4,0.5,0.8,0.5,1.5c0,1.3-1.2,2.3-2.3,2.3h-2.8c-0.1,0-0.2,0-0.2,0.1
	c-0.1,0.1-0.1,0.1-0.1,0.2s0,0.1,0.1,0.2c0.1,0.1,0.1,0.1,0.2,0.1h2.7c1,0,1.5,0.6,1.5,1.4c0,0.7-0.5,1.4-1.5,1.4h-2.8
	c-0.1,0-0.1,0-0.2,0.1s-0.1,0.1-0.1,0.2s0,0.1,0.1,0.2c0,0,0.1,0.1,0.2,0.1h2.1c0.5,0,0.8,0.4,0.8,0.9c0,0.2-0.1,0.4-0.2,0.5
	c-0.1,0.1-0.3,0.2-0.7,0.2h-1.2c-0.1,0-0.1,0-0.1,0c-0.1,0-0.1,0.1-0.1,0.2s0,0.1,0.1,0.2s0.1,0,0.1,0h0.8c0.1,0,0.2,0,0.3,0.1
	s0.1,0.2,0.1,0.3c0,0.1,0,0.2-0.1,0.3c0,0-0.1,0.1-0.2,0.1c0,0,0-0.1,0-0.2c0-0.1-0.1-0.1-0.2-0.1h-0.5c-0.2,0-0.4-0.1-0.5-0.2
	S15,18.6,15,18.3c0-0.2,0.1-0.4,0.2-0.5c0.1-0.1,0.3-0.2,0.4-0.2h1.2c0,0,0.1,0,0.2,0s0.1-0.1,0.1-0.2s0-0.1-0.1-0.2
	c0,0-0.1,0-0.2,0H15c-0.7,0-1.1-0.5-1.1-1.1c0-0.5,0.4-1.1,1.1-1.1h2.8c0.1,0,0.2,0,0.2-0.1c0-0.1,0.1-0.1,0.1-0.2s0-0.1-0.1-0.2
	s-0.1-0.1-0.2-0.1h-2.9c-0.8,0-1.4-0.6-1.4-1.5c0-0.8,0.6-1.5,1.5-1.5h2.6c0.1,0,0.3-0.1,0.4-0.2c0.1-0.1,0.1-0.2,0.1-0.3
	s0-0.2-0.1-0.3s-0.2-0.2-0.4-0.2h-2.8v-0.2c0-0.1,0.1-0.2,0.1-0.3s0.2-0.1,0.3-0.1h1.6c0.1,0,0.1,0,0.2-0.1s0.1-0.1,0.1-0.2
	s0-0.2-0.1-0.2c-0.1,0-0.1-0.1-0.2-0.1h-1.6c-0.1,0-0.2,0-0.3-0.1c-0.1-0.1-0.1-0.2-0.1-0.3V8.8h1.9c0.1,0,0.2,0,0.3-0.1
	s0.1-0.1,0.1-0.3V8.4h0.9C18.3,8.4,18.5,8.3,18.7,8.1z M20.4,9.9c0.3,0.8,0.4,1.7,0.4,2.6c0,2.9-1.5,5.4-3.7,6.9
	c0.1-0.1,0.1-0.3,0.1-0.4c0-0.2-0.1-0.4-0.2-0.5c0,0,0,0,0,0c0.4,0,0.7-0.1,0.9-0.3c0.2-0.2,0.3-0.5,0.3-0.8c0-0.4-0.2-0.8-0.6-1
	h0.1c1.1,0,1.8-0.8,1.8-1.7c0-0.8-0.5-1.4-1.3-1.6c1.2-0.2,2.2-1.3,2.2-2.6C20.4,10.2,20.4,10.1,20.4,9.9z M12.7,9.9
	c0,0.1,0.1,0.1,0.1,0.1c0.1,0.1,0.3,0.2,0.5,0.2c0.1,0,0.2,0,0.3-0.1c0.1,0,0.1-0.1,0.2-0.1c0,0,0,0,0.1,0c0,0,0,0,0,0l0,0l0,0
	l0,0.4c0,0,0,0.1-0.1,0.1l0,0l0,0l-0.3,0.2c-0.2,0.2-0.3,0.5-0.1,0.7c0.1,0.1,0.1,0.1,0.2,0.2c-0.3,0.3-0.4,0.8-0.4,1.2
	c0,0.9,0.6,1.6,1.4,1.8c-0.6,0.2-1,0.8-1,1.4c0,0.7,0.6,1.4,1.5,1.4h0.1c0,0,0,0,0,0c-0.2,0.2-0.4,0.4-0.4,0.8
	c0,0.3,0.1,0.6,0.4,0.8c0.2,0.2,0.5,0.3,0.7,0.3h0.4c0,0,0,0.1,0,0.1c0,0,0,0.1,0,0.1c0,0,0.1,0.1,0.1,0.1c0.1,0,0.2,0,0.3,0
	c-1.2,0.7-2.5,1.1-3.9,1.1V9.9z M3.8,10.2l-2.6,0.8l-0.1,0.8l2.4,1.3l0-0.9l-0.4-0.2l0-0.9l0.4-0.1L3.8,10.2z M22.7,10.3
	c-0.9,0-1.3,0.7-1.3,1.4c0,0.7,0.5,1.4,1.3,1.4s1.3-0.6,1.3-1.4C24,11,23.5,10.3,22.7,10.3z M14.8,10.8h2.8c0.1,0,0.1,0,0.1,0
	c0,0,0,0.1,0,0.1s0,0.1,0,0.1c0,0,0,0-0.1,0H15c-0.1,0-0.2,0-0.2,0C14.8,11,14.8,10.9,14.8,10.8L14.8,10.8L14.8,10.8L14.8,10.8z
	 M22.7,11.1c0.4,0,0.6,0.4,0.6,0.6c0,0.3-0.2,0.6-0.6,0.6s-0.6-0.3-0.6-0.6S22.3,11.1,22.7,11.1z M2.6,11.4l0,0.5l-0.7-0.3L2.6,11.4
	z M4.3,13.6h2.8v5.1C5.6,17.5,4.6,15.7,4.3,13.6z M9.7,13.6h2.7v7.1c-0.9,0-1.8-0.2-2.7-0.5V13.6z"/>
</svg>
