<?xml version="1.0" encoding="utf-8"?>
<!-- Generator: Adobe Illustrator 25.3.0, SVG Export Plug-In . SVG Version: 6.00 Build 0)  -->
<svg version="1.1" id="Layer_1" xmlns="http://www.w3.org/2000/svg" xmlns:xlink="http://www.w3.org/1999/xlink" x="0px" y="0px"
	 viewBox="0 0 25 25" style="enable-background:new 0 0 25 25;" xml:space="preserve">
<path d="M25,12.5c0-0.16,0-0.33-0.01-0.49c0-0.08-0.01-0.17-0.02-0.25c0-0.08,0-0.17-0.01-0.25c-0.01-0.07-0.02-0.13-0.02-0.2
	c-0.01-0.07-0.01-0.15-0.02-0.22c0,0,0-0.01,0-0.01c0-0.01,0-0.02-0.01-0.04c0-0.01,0-0.02,0-0.03c-0.01-0.07-0.02-0.13-0.03-0.2
	c0-0.02-0.01-0.05-0.01-0.07c-0.01-0.08-0.02-0.16-0.03-0.23c-0.01-0.04-0.02-0.08-0.02-0.12c-0.01-0.06-0.02-0.12-0.03-0.17
	c0,0,0,0,0,0c0,0,0-0.01,0-0.01c-0.01-0.03-0.01-0.06-0.02-0.09c-0.01-0.03-0.01-0.07-0.02-0.1c-0.02-0.07-0.04-0.15-0.05-0.22
	c-0.01-0.04-0.02-0.07-0.02-0.11c-0.01-0.06-0.02-0.12-0.04-0.17c0-0.01-0.01-0.03-0.01-0.04c-0.01-0.03-0.01-0.05-0.02-0.08
	c-0.01-0.05-0.03-0.09-0.04-0.14c-0.02-0.08-0.04-0.16-0.06-0.24s-0.05-0.16-0.08-0.24c-0.01-0.02-0.01-0.03-0.01-0.05
	c-0.01-0.03-0.02-0.07-0.03-0.11c0-0.01-0.01-0.02-0.01-0.04c-0.01-0.02-0.01-0.05-0.02-0.07c-0.03-0.09-0.07-0.17-0.1-0.25
	c-0.03-0.08-0.05-0.17-0.08-0.25c-0.01-0.02-0.02-0.05-0.03-0.07c-0.01-0.02-0.01-0.04-0.02-0.05c-0.02-0.05-0.05-0.09-0.07-0.14
	c-0.03-0.08-0.06-0.16-0.09-0.23c-0.03-0.07-0.07-0.13-0.1-0.19c-0.02-0.04-0.03-0.09-0.05-0.13c-0.01-0.02-0.03-0.05-0.04-0.07
	c-0.02-0.04-0.03-0.07-0.05-0.11c-0.04-0.08-0.09-0.16-0.13-0.24c-0.03-0.06-0.06-0.13-0.09-0.19c-0.01-0.02-0.02-0.03-0.02-0.05
	c0,0,0-0.01,0-0.01c0,0,0,0,0-0.01c-0.05-0.08-0.1-0.16-0.15-0.24c-0.05-0.09-0.09-0.18-0.14-0.26c-0.01-0.02-0.03-0.04-0.05-0.07
	c-0.01-0.02-0.02-0.03-0.03-0.05c-0.03-0.05-0.07-0.1-0.11-0.15c-0.05-0.08-0.09-0.16-0.14-0.23c-0.03-0.04-0.06-0.08-0.09-0.11
	c-0.02-0.03-0.04-0.07-0.06-0.1c-0.03-0.04-0.07-0.08-0.1-0.12C22.58,5.11,22.54,5.06,22.5,5c-0.04-0.05-0.09-0.1-0.13-0.15
	c-0.03-0.04-0.06-0.09-0.09-0.13c-0.03-0.03-0.06-0.06-0.08-0.09c-0.03-0.04-0.06-0.08-0.09-0.12C22.06,4.45,22,4.4,21.96,4.34
	c-0.05-0.05-0.08-0.11-0.13-0.16c-0.02-0.03-0.05-0.05-0.08-0.08C21.72,4.07,21.69,4.03,21.67,4c-0.05-0.06-0.11-0.1-0.16-0.16
	c-0.06-0.06-0.11-0.13-0.17-0.19c-0.03-0.03-0.06-0.05-0.09-0.08c-0.03-0.03-0.05-0.06-0.08-0.08c-0.05-0.05-0.12-0.1-0.17-0.15
	c-0.06-0.06-0.12-0.12-0.18-0.18c-0.03-0.03-0.07-0.05-0.1-0.08C20.69,3.06,20.66,3.03,20.63,3c-0.05-0.04-0.11-0.08-0.16-0.12
	c-0.06-0.05-0.12-0.12-0.19-0.17c-0.05-0.04-0.1-0.07-0.15-0.1C20.09,2.58,20.05,2.54,20,2.5c-0.06-0.05-0.13-0.09-0.2-0.14
	c-0.03-0.02-0.06-0.05-0.09-0.08c-0.04-0.03-0.09-0.05-0.13-0.08c-0.08-0.06-0.17-0.12-0.25-0.17C19.31,2.02,19.3,2.01,19.29,2
	c-0.01,0-0.01-0.01-0.02-0.01c-0.04-0.02-0.08-0.05-0.11-0.07c-0.01-0.01-0.03-0.02-0.04-0.03C19.08,1.87,19.04,1.85,19,1.83
	c-0.15-0.09-0.31-0.19-0.46-0.27c-0.02-0.01-0.04-0.03-0.06-0.04c-0.01,0-0.01,0-0.02-0.01c-0.01,0-0.01-0.01-0.02-0.01
	c-0.01-0.01-0.02-0.01-0.03-0.02c-0.14-0.07-0.28-0.14-0.42-0.2c-0.06-0.03-0.12-0.07-0.18-0.1c-0.05-0.02-0.1-0.04-0.14-0.06
	C17.58,1.09,17.5,1.04,17.41,1c-0.03-0.01-0.05-0.02-0.08-0.03c-0.05-0.02-0.09-0.04-0.14-0.06c-0.02-0.01-0.04-0.02-0.07-0.03
	c-0.09-0.04-0.19-0.06-0.28-0.09c-0.08-0.03-0.17-0.06-0.25-0.09c-0.07-0.02-0.14-0.06-0.21-0.08c-0.02-0.01-0.03-0.01-0.05-0.01
	c-0.07-0.02-0.14-0.04-0.21-0.06c-0.04-0.01-0.07-0.03-0.11-0.04c-0.09-0.03-0.19-0.05-0.29-0.07c-0.04-0.01-0.07-0.03-0.11-0.04
	c-0.07-0.02-0.15-0.03-0.23-0.05c-0.09-0.02-0.18-0.05-0.28-0.07C15.05,0.26,15,0.26,14.94,0.24c-0.05-0.01-0.09-0.02-0.14-0.03
	c-0.01,0-0.01,0-0.02,0c0,0-0.01,0-0.01,0c-0.08-0.01-0.16-0.02-0.23-0.03c-0.15-0.02-0.3-0.05-0.45-0.07
	c-0.06-0.01-0.12-0.02-0.18-0.03c0,0,0,0-0.01,0c-0.02,0-0.04,0-0.06-0.01c-0.06-0.01-0.12-0.01-0.19-0.01
	c-0.16-0.02-0.33-0.03-0.49-0.04c-0.06,0-0.13-0.01-0.19-0.01C12.84,0,12.68,0,12.53,0H12.5h-0.03c-0.16,0-0.32,0-0.48,0.01
	c-0.31,0.01-0.61,0.04-0.91,0.08c-0.06,0.01-0.12,0-0.18,0.01c-0.01,0-0.03,0.01-0.04,0.01c-0.4,0.05-0.79,0.12-1.18,0.21
	C9.65,0.33,9.63,0.33,9.6,0.34C9.54,0.36,9.49,0.37,9.43,0.39C9.09,0.47,8.75,0.58,8.41,0.69c-0.05,0.02-0.1,0.03-0.15,0.05
	C8.23,0.75,8.2,0.76,8.17,0.78C7.8,0.92,7.43,1.07,7.06,1.25C6.99,1.28,6.92,1.32,6.85,1.35C6.71,1.43,6.57,1.5,6.43,1.57
	C6.34,1.62,6.27,1.68,6.19,1.73c-0.32,0.19-0.64,0.4-0.94,0.61C5.16,2.41,5.06,2.46,4.97,2.52c-0.04,0.03-0.08,0.07-0.12,0.1
	C4.02,3.27,3.27,4.02,2.62,4.85c-0.1,0.13-0.19,0.26-0.28,0.39C2.13,5.55,1.92,5.86,1.73,6.19C1.68,6.27,1.62,6.34,1.57,6.43
	C1.5,6.57,1.43,6.71,1.35,6.85C1.32,6.92,1.28,6.99,1.25,7.07C1.07,7.43,0.91,7.8,0.77,8.17C0.76,8.2,0.75,8.23,0.74,8.26
	c-0.02,0.05-0.03,0.1-0.04,0.15C0.58,8.75,0.47,9.09,0.39,9.44C0.37,9.49,0.35,9.54,0.34,9.6C0.33,9.63,0.33,9.65,0.32,9.68
	c-0.09,0.39-0.16,0.78-0.21,1.18c0,0.01-0.01,0.03-0.01,0.04c-0.01,0.06,0,0.11-0.01,0.17c-0.03,0.3-0.07,0.61-0.08,0.92
	C0,12.16,0,12.33,0,12.5c0,0.16,0,0.33,0.01,0.49c0.01,0.31,0.04,0.62,0.07,0.92c0,0,0,0,0,0.01c0.03,0.29,0.08,0.58,0.13,0.87
	c0,0,0,0,0,0c0,0,0,0.01,0,0.01c0.05,0.27,0.11,0.54,0.18,0.81c0.04,0.14,0.09,0.27,0.13,0.41c0.04,0.12,0.05,0.25,0.09,0.37
	c0.04,0.13,0.1,0.24,0.15,0.37c0.04,0.12,0.07,0.25,0.12,0.37c0.05,0.12,0.12,0.24,0.17,0.36c0.05,0.11,0.08,0.23,0.13,0.34
	c0.05,0.11,0.12,0.22,0.18,0.33c0.06,0.11,0.1,0.23,0.16,0.34c0.06,0.11,0.14,0.21,0.2,0.32c0.06,0.1,0.11,0.21,0.17,0.31
	c0.06,0.1,0.14,0.19,0.21,0.29c0.07,0.1,0.12,0.21,0.19,0.31c0.07,0.1,0.15,0.19,0.23,0.29c0.07,0.09,0.13,0.19,0.2,0.28
	c0.07,0.09,0.16,0.18,0.24,0.27c0.08,0.09,0.14,0.19,0.22,0.27c0.08,0.09,0.16,0.16,0.24,0.24c0.08,0.09,0.16,0.19,0.24,0.27
	c0.09,0.09,0.18,0.16,0.27,0.24c0.08,0.08,0.16,0.17,0.24,0.24c0.09,0.08,0.18,0.14,0.27,0.22c0.09,0.08,0.17,0.16,0.27,0.24
	c0.09,0.07,0.19,0.13,0.28,0.2c0.1,0.07,0.19,0.16,0.29,0.23c0.1,0.07,0.21,0.13,0.31,0.19c0.1,0.07,0.19,0.14,0.29,0.21
	c0.1,0.06,0.21,0.11,0.31,0.17c0.11,0.06,0.21,0.14,0.32,0.2c0.11,0.06,0.23,0.1,0.34,0.16c0.11,0.06,0.21,0.12,0.33,0.18
	c0.11,0.05,0.23,0.09,0.34,0.13c0.12,0.05,0.24,0.12,0.36,0.17c0.12,0.05,0.25,0.08,0.37,0.12c0.12,0.04,0.24,0.1,0.37,0.15
	c0.12,0.04,0.25,0.06,0.37,0.09c0.14,0.04,0.27,0.1,0.41,0.13c0.27,0.07,0.54,0.13,0.81,0.18c0,0,0.01,0,0.01,0c0,0,0,0,0.01,0
	c0.29,0.05,0.57,0.1,0.87,0.13c0,0,0,0,0.01,0c0.3,0.03,0.61,0.06,0.92,0.07C12.17,25,12.34,25,12.5,25c0.17,0,0.34,0,0.51-0.01
	c0.04,0,0.08-0.01,0.13-0.01c0.17-0.01,0.33-0.02,0.5-0.04c0.1-0.01,0.2-0.02,0.3-0.03c0.02,0,0.04,0,0.06-0.01
	c0.03,0,0.07,0,0.11-0.01c0.01,0,0.03-0.01,0.04-0.01c0.02,0,0.04-0.01,0.06-0.01c0.23-0.03,0.46-0.07,0.68-0.12
	c0.05-0.01,0.11-0.02,0.17-0.03c0.06-0.01,0.12-0.03,0.18-0.04c0.03-0.01,0.06-0.01,0.09-0.02c0.03-0.01,0.05-0.02,0.08-0.02
	c0.06-0.01,0.11-0.03,0.17-0.04c0.02,0,0.03-0.01,0.05-0.01c0.11-0.03,0.22-0.05,0.32-0.08c0.03-0.01,0.06-0.02,0.09-0.03
	c0.06-0.02,0.12-0.03,0.17-0.05c0.03-0.01,0.07-0.02,0.1-0.03c0.1-0.03,0.2-0.07,0.3-0.1c0.05-0.02,0.1-0.03,0.15-0.04
	c0.03-0.01,0.06-0.03,0.09-0.04c0.06-0.02,0.12-0.04,0.18-0.06c0.04-0.02,0.08-0.04,0.12-0.05c0.05-0.02,0.1-0.04,0.15-0.06
	c0.03-0.01,0.06-0.02,0.09-0.03c0.06-0.03,0.12-0.06,0.19-0.09c0.13-0.06,0.26-0.12,0.39-0.18c0.07-0.03,0.13-0.07,0.2-0.1
	c0.08-0.04,0.16-0.08,0.24-0.12c0.01-0.01,0.02-0.01,0.03-0.01c0.03-0.02,0.06-0.03,0.08-0.05c0.03-0.02,0.06-0.03,0.09-0.04
	c0.03-0.02,0.06-0.04,0.09-0.06c0.19-0.11,0.38-0.22,0.56-0.33c0.01,0,0.02-0.01,0.02-0.01c0.02-0.01,0.03-0.02,0.05-0.03
	c0.23-0.15,0.46-0.3,0.68-0.47c0.01-0.01,0.02-0.02,0.03-0.03c0.01-0.01,0.02-0.01,0.02-0.01c0.04-0.03,0.08-0.07,0.12-0.1
	c0.11-0.09,0.22-0.17,0.33-0.26c0.04-0.03,0.08-0.06,0.12-0.09c0.1-0.08,0.19-0.18,0.28-0.27c0.09-0.08,0.19-0.15,0.27-0.23
	c0.03-0.03,0.06-0.07,0.09-0.1c0.09-0.08,0.17-0.17,0.25-0.26c0.05-0.05,0.1-0.09,0.15-0.15c0.08-0.08,0.15-0.18,0.22-0.27
	c0.07-0.08,0.15-0.15,0.22-0.23c0.03-0.03,0.05-0.07,0.08-0.11c0.06-0.08,0.13-0.16,0.19-0.24c0.03-0.04,0.07-0.08,0.1-0.12
	c0.01-0.01,0.01-0.01,0.02-0.02c0,0,0.01-0.01,0.01-0.01c0.06-0.08,0.12-0.18,0.18-0.26c0.06-0.08,0.12-0.16,0.18-0.24
	c0.04-0.06,0.07-0.12,0.11-0.18c0.05-0.07,0.1-0.15,0.14-0.22c0.02-0.04,0.05-0.07,0.07-0.1c0.05-0.08,0.09-0.17,0.14-0.26
	c0.02-0.04,0.05-0.07,0.07-0.11c0.02-0.03,0.04-0.05,0.05-0.08c0.01-0.01,0.01-0.02,0.02-0.03c0-0.01,0.01-0.02,0.02-0.03
	c0.02-0.04,0.04-0.09,0.07-0.13c0.03-0.06,0.06-0.12,0.1-0.19c0,0,0,0,0-0.01c0.03-0.06,0.07-0.11,0.1-0.17c0,0,0,0,0,0c0,0,0,0,0,0
	c0-0.01,0.01-0.02,0.01-0.03c0.01-0.02,0.02-0.04,0.03-0.06c0.05-0.1,0.09-0.2,0.14-0.3c0.02-0.04,0.04-0.07,0.06-0.11
	c0.03-0.06,0.05-0.13,0.07-0.19c0.04-0.09,0.08-0.19,0.12-0.28c0-0.01,0.01-0.02,0.01-0.03c0,0,0,0,0,0
	c0.02-0.06,0.04-0.12,0.07-0.19c0.01-0.03,0.03-0.06,0.04-0.09s0.02-0.06,0.03-0.09c0.02-0.04,0.04-0.09,0.05-0.13
	c0.02-0.05,0.03-0.1,0.04-0.15c0.03-0.1,0.06-0.19,0.09-0.29c0.01-0.02,0.01-0.04,0.02-0.06c0.02-0.07,0.03-0.14,0.05-0.21
	c0.01-0.03,0.01-0.05,0.02-0.08c0.02-0.07,0.04-0.14,0.06-0.21c0-0.01,0-0.02,0.01-0.03c0.01-0.03,0.01-0.05,0.02-0.08
	c0.01-0.03,0.02-0.05,0.02-0.08c0.01-0.05,0.02-0.1,0.03-0.14c0.01-0.05,0.03-0.11,0.04-0.16c0.02-0.09,0.03-0.18,0.04-0.27
	c0.01-0.08,0.03-0.15,0.05-0.23c0.01-0.06,0.01-0.12,0.02-0.18c0.01-0.07,0.02-0.13,0.03-0.19c0-0.01,0.01-0.03,0.01-0.04
	c0-0.01,0-0.03,0-0.04c0-0.02,0.01-0.03,0.01-0.05c0.01-0.08,0.01-0.17,0.02-0.25c0.01-0.08,0.02-0.17,0.03-0.25
	c0.01-0.09,0.01-0.18,0.01-0.26c0-0.08,0.02-0.16,0.02-0.24C25,12.85,25,12.68,25,12.52c0,0,0,0,0-0.01C25,12.51,25,12.5,25,12.5z
	 M5.73,3.84c0.07-0.05,0.14-0.1,0.21-0.16C5.98,3.66,6.02,3.63,6.06,3.6c0.06-0.04,0.11-0.08,0.17-0.12
	C6.43,3.34,6.64,3.2,6.86,3.07c0.05-0.03,0.1-0.06,0.15-0.09c0.21-0.12,0.41-0.24,0.63-0.35c0,0,0,0,0.01,0
	C7.8,2.56,7.96,2.49,8.12,2.43c0.21-0.09,0.42-0.18,0.64-0.26c0.01,0,0.01,0,0.02-0.01C8.94,2.1,9.12,2.05,9.29,1.99
	C9.51,1.93,9.74,1.86,9.97,1.8c0.18-0.04,0.37-0.08,0.56-0.11c0.22-0.04,0.44-0.08,0.67-0.1c0.28-0.03,0.56-0.05,0.84-0.06
	c0,0,0,0,0,0c0,0,0,0,0,0c0,0,0,0,0,0.01c0,0,0,0,0,0.01c0,0,0,0,0,0.01c0,0,0,0,0,0l-1.41,9.8l0,0c-0.01,0.05-0.03,0.07-0.06,0.11
	L2.8,17.57c0,0,0,0,0,0c0,0,0,0,0,0c0,0,0,0,0,0c0,0,0,0,0,0c0,0,0,0,0,0c0,0,0,0,0,0c0,0,0,0,0,0c0,0,0,0,0,0c0,0,0,0,0,0
	c0,0,0,0,0,0c0,0,0,0,0,0c0,0,0,0,0,0c-0.1-0.18-0.19-0.37-0.27-0.56c-0.1-0.23-0.2-0.47-0.29-0.71c-0.1-0.27-0.19-0.55-0.27-0.83
	c-0.06-0.21-0.11-0.43-0.16-0.65c-0.06-0.3-0.12-0.59-0.16-0.9C1.6,13.9,1.6,13.85,1.59,13.8c-0.02-0.18-0.04-0.37-0.05-0.55
	C1.52,13,1.5,12.75,1.5,12.5c0,0,0,0,0,0c0-0.32,0.04-0.64,0.07-0.95c0.01-0.16,0.02-0.32,0.04-0.48c0.02-0.18,0.05-0.36,0.08-0.54
	c0.03-0.19,0.07-0.37,0.11-0.56c0.05-0.23,0.12-0.46,0.19-0.68c0.05-0.17,0.1-0.35,0.16-0.52c0,0,0-0.01,0-0.01
	c0.08-0.22,0.17-0.43,0.26-0.64C2.49,7.96,2.56,7.8,2.63,7.65c0,0,0-0.01,0.01-0.01c0.11-0.21,0.23-0.42,0.35-0.63
	c0.03-0.05,0.06-0.1,0.09-0.15C3.2,6.64,3.35,6.43,3.49,6.22C3.53,6.17,3.57,6.11,3.6,6.06c0.03-0.04,0.05-0.08,0.08-0.11
	c0.05-0.07,0.1-0.14,0.16-0.21c0.25-0.32,0.52-0.62,0.8-0.91C4.7,4.76,4.76,4.7,4.82,4.64C5.11,4.36,5.41,4.09,5.73,3.84z
	 M14.85,1.77c0.22,0.05,0.44,0.1,0.65,0.16c0.28,0.08,0.55,0.17,0.83,0.27c0.24,0.09,0.48,0.18,0.71,0.29
	c0.22,0.1,0.43,0.2,0.64,0.32c0.02,0.01,0.03,0.02,0.05,0.03c0.2,0.11,0.4,0.22,0.59,0.34c0.01,0.01,0.02,0.01,0.03,0.02
	c0.2,0.12,0.39,0.25,0.58,0.39c0.01,0,0.01,0.01,0.02,0.01c0.19,0.14,0.37,0.28,0.55,0.43c0.18,0.15,0.36,0.3,0.53,0.46
	c0.18,0.16,0.35,0.33,0.51,0.51c0.16,0.17,0.31,0.34,0.46,0.52c0.15,0.18,0.29,0.36,0.43,0.55c0.01,0.01,0.01,0.02,0.02,0.02
	c0.13,0.19,0.26,0.38,0.39,0.57c0.01,0.01,0.01,0.02,0.02,0.03c0.12,0.19,0.23,0.39,0.34,0.59c0.01,0.02,0.02,0.03,0.03,0.05
	c0.11,0.21,0.22,0.42,0.32,0.64c0.1,0.23,0.2,0.47,0.29,0.71c0.1,0.27,0.19,0.55,0.27,0.83c0.06,0.21,0.11,0.43,0.16,0.65
	c0.07,0.33,0.14,0.67,0.18,1.01c0.01,0.08,0.02,0.17,0.03,0.25c0.04,0.36,0.06,0.72,0.06,1.09c0,0,0,0,0,0
	c0,0.44-0.04,0.87-0.09,1.3c-0.03,0.23-0.06,0.45-0.1,0.67c-0.03,0.19-0.07,0.38-0.11,0.56c-0.05,0.23-0.12,0.46-0.19,0.68
	c-0.05,0.17-0.1,0.35-0.16,0.52c0,0.01,0,0.01-0.01,0.02c-0.08,0.22-0.17,0.43-0.26,0.64c-0.07,0.16-0.13,0.32-0.21,0.47
	c0,0,0,0.01,0,0.01c-0.04,0.07-0.08,0.14-0.12,0.22c-0.01,0-0.01,0.01-0.03,0l-0.15-0.12l-0.33-0.26l-0.33-0.26l-0.16-0.13
	l-0.33-0.26l-0.33-0.26l-0.33-0.26l-0.33-0.26l-0.33-0.26l-0.33-0.26l-0.16-0.13l-0.33-0.26l-0.33-0.26l-0.33-0.26l-0.33-0.26
	l-0.33-0.26l-0.16-0.13l-0.33-0.26l-0.33-0.26l-0.33-0.26l-0.33-0.26l-0.33-0.26l-0.33-0.26l-0.16-0.13l-0.33-0.26l-0.33-0.26
	l-0.12-0.09c-0.04-0.03-0.05-0.06-0.06-0.11l0.01,0.07l0.01,0.01l-0.01-0.01l-0.08-0.56l-0.02-0.14l-0.02-0.11L14.16,10l-0.04-0.29
	l-0.03-0.22l-0.05-0.35l0-0.03l0-0.02l0-0.01L14.01,8.9l-0.02-0.17l-0.06-0.4l-0.03-0.23l-0.01-0.04l-0.02-0.16l-0.04-0.27
	l-0.04-0.29l-0.03-0.24L13.7,6.75l-0.02-0.17l-0.04-0.3l-0.02-0.12l-0.07-0.51l-0.02-0.17l-0.01-0.04l-0.02-0.16l-0.04-0.3
	l-0.03-0.24l-0.04-0.27l-0.05-0.37L13.31,4l-0.02-0.15l-0.03-0.2l-0.03-0.2l-0.05-0.38l-0.01-0.04l-0.06-0.39l-0.05-0.32l-0.04-0.3
	L13,1.83l-0.01-0.06l-0.03-0.2l0,0c0,0,0,0,0,0c0,0,0-0.01,0-0.01c0,0,0,0,0-0.01c0,0,0,0,0,0c0,0,0,0,0-0.01c0,0,0,0,0,0
	c0,0,0,0,0,0s0,0,0,0c0,0,0,0,0,0c0.21,0.01,0.42,0.01,0.62,0.03c0.08,0.01,0.17,0.02,0.25,0.03C14.18,1.63,14.51,1.7,14.85,1.77z
	 M12.5,23.5C12.5,23.5,12.5,23.5,12.5,23.5c-0.25,0-0.49-0.02-0.74-0.04c-0.18-0.01-0.37-0.03-0.55-0.05
	c-0.06-0.01-0.12-0.02-0.18-0.02c-0.3-0.04-0.6-0.09-0.89-0.16c-0.22-0.05-0.43-0.1-0.65-0.16c-0.28-0.08-0.56-0.17-0.83-0.27
	c-0.24-0.09-0.47-0.18-0.71-0.29c-0.22-0.1-0.43-0.2-0.64-0.32c-0.02-0.01-0.03-0.02-0.05-0.03c-0.2-0.11-0.4-0.22-0.59-0.34
	c-0.01-0.01-0.02-0.01-0.03-0.02c-0.2-0.12-0.39-0.25-0.58-0.39c-0.01,0-0.01-0.01-0.02-0.01c-0.19-0.14-0.37-0.28-0.55-0.43
	c-0.18-0.15-0.35-0.3-0.52-0.46c-0.18-0.16-0.35-0.33-0.51-0.51c-0.16-0.17-0.31-0.34-0.46-0.52c-0.15-0.18-0.29-0.36-0.43-0.55
	c0-0.01-0.01-0.01-0.01-0.02c-0.12-0.17-0.24-0.35-0.35-0.53c0,0,0,0,0,0c0,0,0,0,0,0l0,0c0,0,0,0,0,0c0,0,0,0,0,0c0,0,0,0,0,0l0,0
	c0,0,0,0,0,0l0,0l0,0l0.23-0.09l0.33-0.13l0.24-0.1l0.33-0.13l0.24-0.1l0.33-0.13l0.24-0.1l0.08-0.03l0.11-0.05l0.38-0.15l0.19-0.08
	l0.38-0.15l0.38-0.15l0.38-0.15l0.05-0.02l0.14-0.05l0.38-0.15l0.1-0.04l0.09-0.04l0,0l0.19-0.08l0.38-0.15l0.38-0.15l0.38-0.15
	l0.19-0.08l0.38-0.15l0.33-0.13l0.24-0.1l0.38-0.15l0.38-0.15l0.05-0.02l0.14-0.05L11.66,15l0.38-0.15l0.32-0.13l0.14-0.06l0,0
	l-0.06,0.02c0.04-0.02,0.07-0.02,0.12,0l0.29,0.12l0.12,0.05l0.11,0.05l0.08,0.03l0.12,0.05l0.55,0.22l0.09,0.04l0.18,0.07
	l0.29,0.12l0.28,0.11l0.19,0.08l0.38,0.15l0.19,0.08l0.38,0.15l0.38,0.15l0.11,0.05l0.08,0.03l0.38,0.15l0.38,0.15
	c0.02,0.01,0.04,0.02,0.04,0.02l0.02,0.01c0,0,0.01,0,0.01,0l0.01,0c0,0,0,0,0,0l0.01,0c0,0,0,0,0,0l0.01,0c0,0,0,0,0,0l0.01,0.01
	c0,0,0,0,0,0l0,0c0,0,0.01,0,0.01,0l0.04,0.02c0,0,0,0,0,0l0.01,0l0,0l0,0c0,0,0.01,0,0.01,0l0.02,0.01c0,0,0.01,0,0.01,0l0.01,0
	l0,0l0.01,0.01c0,0,0,0,0,0l0.03,0.01l0,0l0.03,0.01c0,0,0,0,0,0l0.02,0.01l0,0l0,0c0,0,0,0,0,0l0.03,0.01l0,0l0.02,0.01
	c0,0,0,0,0,0l0.02,0.01l0,0l0.03,0.01c0,0,0,0,0,0l0.01,0l0,0l0.01,0l0,0l0.02,0.01c0,0,0,0,0,0l0.01,0c0,0,0,0,0,0l0.02,0.01l0,0
	l0.02,0.01c0,0,0,0,0,0l0.04,0.02l0,0l0.01,0c0,0,0,0,0,0l0.01,0l0,0l0.02,0.01l0,0l0.02,0.01l0,0l0.01,0l0,0l0.02,0.01l0,0
	l0.02,0.01l0,0l0.02,0.01l0,0l0.01,0l0,0l0.02,0.01l0,0l0.02,0.01l0,0l0.01,0l0,0l0.01,0l0,0l0.01,0l0,0l0.03,0.01l0,0l0.02,0.01
	l0,0l0.01,0l0,0l0.01,0l0,0l0.02,0.01l0,0l0.01,0l0,0l0.02,0.01l0,0l0.02,0.01l0,0l0.01,0l0,0l3.15,1.26l0.31,0.12l0.15,0.06
	l0.12,0.05c0.01,0.01,0.02,0.01,0.02,0.02c-0.08,0.13-0.17,0.27-0.26,0.39c-0.04,0.05-0.07,0.11-0.11,0.16
	c-0.03,0.04-0.05,0.08-0.08,0.12c-0.05,0.07-0.1,0.14-0.16,0.21c-0.26,0.33-0.53,0.64-0.82,0.94c-0.04,0.04-0.09,0.09-0.13,0.13
	c-0.3,0.29-0.61,0.56-0.94,0.82c-0.07,0.06-0.15,0.1-0.22,0.16c-0.04,0.03-0.07,0.05-0.11,0.08c-0.05,0.04-0.11,0.07-0.16,0.11
	c-0.21,0.15-0.42,0.29-0.64,0.42c-0.05,0.03-0.1,0.06-0.16,0.09c-0.21,0.12-0.41,0.24-0.63,0.35c0,0,0,0-0.01,0
	c-0.15,0.08-0.32,0.14-0.47,0.21c-0.21,0.09-0.42,0.18-0.63,0.26c-0.01,0-0.01,0-0.02,0.01c-0.17,0.06-0.35,0.11-0.52,0.16
	c-0.22,0.07-0.45,0.14-0.68,0.19c-0.18,0.04-0.37,0.07-0.56,0.11c-0.22,0.04-0.45,0.08-0.67,0.1C13.37,23.46,12.94,23.5,12.5,23.5
	L12.5,23.5z"/>
</svg>
