<?xml version="1.0" encoding="utf-8"?>
<!-- Generator: Adobe Illustrator 25.3.0, SVG Export Plug-In . SVG Version: 6.00 Build 0)  -->
<svg version="1.1" id="Layer_1" xmlns="http://www.w3.org/2000/svg" xmlns:xlink="http://www.w3.org/1999/xlink" x="0px" y="0px"
	 viewBox="0 0 50.4 25" style="enable-background:new 0 0 50.4 25;" xml:space="preserve">
<path d="M31.04,19.44c-0.07-0.09-0.15-0.19-0.23-0.27c-0.27-0.26-0.59-0.47-0.95-0.6c-0.18-0.06-0.34-0.15-0.5-0.26
	c-0.18-0.13-0.42-0.38-0.51-0.59c-0.05-0.11-0.18-0.43-0.25-0.53c-0.11-0.17-0.39-0.05-0.31,0.17c0.07,0.19,0.17,0.42,0.19,0.6
	c0.04,0.29-0.24,0.38-0.39,0.39c-0.39,0.01-0.61,0.02-1,0.06c-0.75,0.09-1.31,0.09-1.76,0.08c-0.71,1.55-1.9,3.13-2.98,4.14
	c2.05,1.49,4.51,2.32,7.04,2.37c0.35,0,0.35,0.01,0.35,0.01v-2.97c-0.23,0.08-0.42,0.03-0.59-0.14l0,0
	c-0.07-0.08-0.14-0.17-0.19-0.26c-0.06-0.11-0.12-0.23-0.17-0.35c-0.11-0.25-0.12-0.26-0.4-0.25c-0.13,0.01-0.26-0.04-0.34-0.14
	c-0.19-0.21-0.36-0.45-0.51-0.71c-0.03-0.03,0.09-0.1,0.13-0.11c0.28-0.05,0.56-0.1,0.85-0.14c0.18-0.03,0.31,0.05,0.4,0.19
	c0.07,0.1,0.12,0.2,0.18,0.31c0.03,0.05,0.06,0.1,0.08,0.16c0.13,0.3,0.37,0.4,0.68,0.36c0.45-0.06,0.85-0.28,1.14-0.63
	C31.36,19.92,31.29,19.76,31.04,19.44z M30.22,20.27c-0.09,0.04-0.18,0.07-0.28,0.09c-0.18,0.02-0.25-0.02-0.33-0.19
	c-0.09-0.19-0.17-0.38-0.17-0.6c0.26-0.06,0.51-0.11,0.76-0.12c0.1,0.1,0.18,0.22,0.21,0.36C30.45,20.01,30.39,20.18,30.22,20.27z"
	/>
<path d="M37.42,15.75c-0.07-0.21-0.2-0.39-0.37-0.52c-0.15-0.11-0.3-0.23-0.46-0.33c-0.07-0.04-0.14-0.07-0.22-0.1
	c-0.09-0.04-0.17-0.01-0.24,0.07c-0.05,0.07-0.1,0.15-0.15,0.22c-0.07,0.09-0.16,0.11-0.26,0.08s-0.15-0.1-0.15-0.23
	c0-0.05,0-0.1,0.01-0.15c0.08-0.33,0.22-0.64,0.43-0.91c0.03-0.04,0.07-0.07,0.11-0.1c0.1-0.08,0.2-0.08,0.3,0
	c0.36,0.36,0.66,0.65,0.98,0.91c0.35,0.28,0.45,0.69,0.51,1.1c-0.01,0.06-0.01,0.11-0.03,0.15c-0.02,0.07-0.09,0.11-0.16,0.12
	s-0.14,0-0.18-0.07C37.49,15.92,37.45,15.83,37.42,15.75"/>
<path d="M36.7,17.68c0.13-0.04,0.23,0.04,0.25,0.18c0.01,0.06,0.01,0.12,0.01,0.14c0,0.39-0.11,0.58-0.58,0.62
	c-0.19-0.01-0.25-0.06-0.27-0.16c-0.04-0.25,0.03-0.47,0.24-0.62C36.45,17.76,36.58,17.71,36.7,17.68"/>
<path d="M50.4,0l-2.9,8.07h-3.71v4.43c0,0.12,0,0.24,0,0.36c-0.05,6.61-5.36,11.97-11.92,12.13L31.25,25v-3.68l0.22-0.1
	c0.19-0.08,0.35-0.19,0.45-0.37c0.12-0.2,0.29-0.28,0.52-0.28c0.32,0,0.38-0.06,0.44-0.36c0.06-0.33,0.1-0.61,0.16-0.88
	c0.05-0.25,0.03-0.49-0.12-0.71c-0.25-0.39-0.5-0.79-0.76-1.17c-0.18-0.26-0.27-0.28-0.52-0.06l0.23,0.42
	c0.18,0.25,0.36,0.5,0.53,0.75c0.06,0.08,0.1,0.17,0.12,0.27c0.07,0.38,0,0.78-0.18,1.12c-0.02,0.04-0.08,0.07-0.14,0.11
	c-0.03-0.07-0.06-0.11-0.07-0.15c-0.02-0.09-0.02-0.18-0.02-0.27c0-0.33-0.11-0.62-0.31-0.88c-0.26-0.32-0.49-0.65-0.73-0.98
	c-0.23-0.32-0.2-0.66,0.08-0.94c0.12-0.12,0.25-0.23,0.37-0.34c0.17-0.16,0.3-0.34,0.38-0.56c0.06-0.17,0.12-0.34,0.16-0.51
	c0.09-0.43,0.13-0.87,0.12-1.3V13.8c0-0.08,0.03-0.15,0.09-0.21c0.09-0.09,0.24-0.09,0.31,0.03c0.04,0.07,0.07,0.14,0.09,0.22
	c0.09,0.38,0.13,0.76,0.09,1.15c-0.05,0.48-0.15,0.96-0.3,1.42c-0.03,0.09-0.08,0.18-0.06,0.3c0.08,0,0.14,0.01,0.21,0
	c0.14-0.02,0.27-0.04,0.41-0.06c0.47-0.05,0.88-0.23,1.21-0.58c0.15-0.16,0.32-0.3,0.48-0.45c0.06-0.06,0.13-0.09,0.22-0.05
	c0.08,0.03,0.12,0.12,0.1,0.23c-0.03,0.12-0.06,0.23-0.11,0.34c-0.09,0.18-0.18,0.35-0.29,0.52c-0.23,0.35-0.42,0.72-0.57,1.11
	c-0.09,0.24-0.19,0.48-0.28,0.72c-0.08,0.25-0.02,0.31,0.22,0.28c0.2-0.02,0.25,0.02,0.26,0.21c0.01,0.08,0,0.16,0,0.24
	c0,0.09,0,0.18,0.02,0.27c0.06,0.35,0.45,0.58,0.79,0.46c0.16-0.06,0.31-0.14,0.46-0.22c0.11-0.06,0.22-0.14,0.33-0.2
	c0.31-0.19,0.64-0.32,1-0.35c0.15-0.01,0.3-0.01,0.45-0.01c0.24,0.01,0.48-0.09,0.63-0.28c0.09-0.1,0.18-0.21,0.29-0.3
	c0.18-0.16,0.31-0.17,0.51-0.04c0.16,0.1,0.31,0.21,0.47,0.32c0.24,0.17,0.5,0.33,0.77,0.44c0.25,0.1,0.51,0.17,0.78,0.14
	c0.04-0.01,0.07-0.02,0.13-0.04c-0.06-0.06-0.1-0.1-0.15-0.13c-0.12-0.1-0.26-0.18-0.38-0.29c-0.17-0.15-0.33-0.31-0.48-0.48
	c-0.19-0.22-0.35-0.45-0.53-0.68c-0.1-0.13-0.2-0.27-0.29-0.41c-0.04-0.08-0.07-0.16-0.07-0.25C38.98,17.08,39.05,17,39.14,17
	c0.03,0,0.05,0,0.07,0.01c0.08,0.03,0.16,0.08,0.23,0.14c0.23,0.22,0.46,0.44,0.69,0.66c0.14,0.14,0.27,0.29,0.41,0.42
	c0.17,0.16,0.35,0.3,0.57,0.37c0.24,0.07,0.37,0.07,0.67-0.04c0.03-0.04-0.15-0.13-0.15-0.13c-0.63-0.32-1.1-0.75-1.51-1.33
	c-0.28-0.4-0.52-0.82-0.71-1.27c-0.23-0.51-0.4-1.05-0.59-1.59c-0.23-0.64-0.46-1.28-0.7-1.92c-0.16-0.42-0.41-0.79-0.7-1.14
	c-0.37-0.46-0.83-0.82-1.32-1.15c-0.49-0.34-1.01-0.62-1.53-0.91c-0.87-0.48-1.77-0.89-2.61-1.43c-0.14-0.08-0.21-0.12-0.28-0.14
	c-0.09-0.03-0.17-0.06-0.26-0.09l-0.14-0.03V0H50.4z"/>
<path d="M31.47,10.02c-0.06-0.05-0.12-0.11-0.16-0.17c-0.07-0.09-0.07-0.21-0.01-0.31c0.05-0.1,0.16-0.16,0.27-0.15
	c0.05,0,0.1,0.01,0.14,0.02c0.1,0.04,0.2,0.08,0.3,0.13c0.44,0.28,0.79,0.65,1.05,1.11c0.11,0.2,0.17,0.43,0.18,0.6
	c-0.01,0.08,0,0.17-0.1,0.22c-0.07,0.03-0.15,0-0.22-0.11c-0.28-0.46-0.68-0.79-1.11-1.1C31.69,10.19,31.58,10.11,31.47,10.02"/>
<path d="M21.09,21.57c-0.4,0.38-0.82,0.73-1.27,1.05C17.69,24.17,15.13,25,12.5,25C5.61,25,0,19.39,0,12.5S5.61,0,12.5,0
	c2.63,0,5.19,0.83,7.32,2.37c-1.94,1.89-3.3,4.29-3.92,6.93c-0.88-0.94-2.11-1.48-3.4-1.48c-2.58,0-4.67,2.1-4.67,4.67
	s2.1,4.67,4.67,4.67c1.34,0,2.55-0.57,3.4-1.48c0.82-0.86,1.27-2.01,1.27-3.2c0-3.72,1.66-7.25,4.53-9.62
	c0.21-0.18,0.43-0.34,0.65-0.51C24.41,0.88,26.93,0,29.75,0v7.65c0,0-0.06,0.06-0.16,0.1c-0.14,0.05-0.28,0.09-0.43,0.11
	c-1.1,0.12-2.13,0.64-2.88,1.45c-0.83,0.86-1.28,2-1.28,3.19C25,16.07,23.5,19.3,21.09,21.57"/>
</svg>
