<?xml version="1.0" encoding="utf-8"?>
<!-- Generator: Adobe Illustrator 25.3.0, SVG Export Plug-In . SVG Version: 6.00 Build 0)  -->
<svg version="1.1" id="Layer_1" xmlns="http://www.w3.org/2000/svg" xmlns:xlink="http://www.w3.org/1999/xlink" x="0px" y="0px"
	 viewBox="0 0 28.34 25" style="enable-background:new 0 0 28.34 25;" xml:space="preserve">
<style type="text/css">
	.st0{fill-rule:evenodd;clip-rule:evenodd;fill:#FFFFFF;}
</style>
<path class="st0" d="M15.8,0C8.9,0,3.32,5.6,3.32,12.51c0,0.26,0,0.49,0.02,0.72H1.71c-0.09,0-0.14,0.05-0.19,0.12
	c-0.02,0.07-1.46,2.6-1.51,2.67c-0.02,0.07-0.02,0.09,0.05,0.09h3.79C5.41,21.26,10.18,25,15.83,25c6.91,0,12.51-5.6,12.51-12.51
	C28.32,5.6,22.71,0,15.8,0z M6.87,16.12h3.33l-1.6,2.79C7.9,18.09,7.29,17.16,6.87,16.12z M15.8,22.14c-2.63,0-5-1.05-6.72-2.74h2.7
	c0,0,7.77-13.7,7.81-13.77c0.05-0.05,0.02-0.09-0.05-0.09h-3.16c-0.07,0-0.07,0.02-0.09,0.05c-0.02,0.05-4.39,7.65-4.39,7.65H6.2
	c-0.02-0.24-0.02-0.5-0.02-0.73c0-5.33,4.3-9.65,9.63-9.65c2.72,0,5.16,1.14,6.93,2.95c-0.77,1.28-4.16,7.07-4.63,7.91
	c-0.26-0.6-1.49-0.49-2.14-0.51c-0.28,0.47-1.56,2.91-1.56,2.91h1.35c0.63,0,0.7,0.65,0.44,1.07s-1.26,2.21-1.26,2.21h3.28
	c0,0,4.02-7.02,6.3-11c0.6,1.26,0.93,2.65,0.93,4.12C25.46,17.81,21.13,22.14,15.8,22.14L15.8,22.14z"/>
</svg>
