<?xml version="1.0" encoding="utf-8"?>
<!-- Generator: Adobe Illustrator 25.3.0, SVG Export Plug-In . SVG Version: 6.00 Build 0)  -->
<svg version="1.1" id="Layer_1" xmlns="http://www.w3.org/2000/svg" xmlns:xlink="http://www.w3.org/1999/xlink" x="0px" y="0px"
	 viewBox="0 0 297.92 113.59" style="enable-background:new 0 0 297.92 113.59;" xml:space="preserve">
<style type="text/css">
	.st0{fill-rule:evenodd;clip-rule:evenodd;fill:#FFFFFF;}
	.st1{fill-rule:evenodd;clip-rule:evenodd;}
</style>
<path class="st0" d="M12.39,60.59c-1.53-1.4-2.38-2.99-2.86-4.33c-0.48-1.38-1.09-3.11-1.09-4.57c0.03-6.61,3.89-11.52,8.04-13.79
	c1.89-1.03,2.59-1.74,2.88-2.1c-0.14-0.06-0.32-0.11-0.44-0.11c-5.65,0-8.55-2.2-9.97-4.05c-1.35-1.74-2.04-3.98-2.04-6.44
	c0-1.19,0.17-2.44,0.5-3.72c1.59-2.63,3.11-1.91,4.03-0.56c0.59,0.84,4.64,3.71,9.62,4.17c3.63,0.34,5.58,2.12,6.6,3.54
	c1.17,1.64,1.62,3.62,1.62,5.3c0,0.69-0.08,1.33-0.23,1.91c-0.55,2.22-2.88,4.21-6.13,6.76l-1.84,1.53
	c-2.7,2.36-4.19,4.99-4.19,7.22c0,0.56,0.1,1.1,0.29,1.6c0.08,0.21,0.17,0.4,0.28,0.59c1.21,2.04,4.62,3.32,9.57,1.59
	c2.29-0.79,6.69-3.56,9.38-6.23c3.16-3.16,7.38-3.91,11.45-4.23c3.53-0.27,5.69-1.13,7.22-2.85c4.52-5.09,8.86-5.81,12.93-6.11
	c1.56-0.12,1.64-0.23,1.84-0.51c2.24-2.99,4.55-4.57,6.61-5.49c1.58-0.7,3.01-1.02,4.19-1.28l1.43-0.35l0.36-0.13
	c2.27-0.73,4.02-1.33,8.63-4.45l0.2-0.12l0,0l0.19-0.12l0,0l0.19-0.11l0,0l0.19-0.11l0,0l0.2-0.1l0.01,0l0.19-0.1l0.01,0l0.19-0.09
	l0.01,0l0.19-0.09l0.01,0l0.19-0.08l0.01,0l0.19-0.08l0.01,0l0.2-0.07l0.01-0.01l0.19-0.07l0.21-0.07l0.01,0l0.19-0.06l0.01,0
	l0.2-0.06l0.01,0l0.19-0.05l0.02,0l0.2-0.05l0.02,0l0.19-0.04l0.02,0l0.2-0.04l0.02,0l0.19-0.04l0.02,0l0.19-0.03l0.02,0l0.19-0.03
	l0.02,0l0.19-0.02l0.02,0l0.19-0.02l0.02,0l0.19-0.02l0.02,0l0.19-0.01l0.02,0l0.19-0.01l0.02,0l0.19-0.01l0.21-0.01h0.02l0.19,0
	h0.21h0.02l0.19,0l0.02,0h0.02c0.13,0,0.27,0.01,0.4,0.02l0.18,0.01l0.03,0l0.18,0.01l0.03,0l0.18,0.02l0.03,0l0.18,0.02l0.03,0
	l0.18,0.02l0.03,0l0.18,0.02l0.03,0.01l0.18,0.03l0.03,0.01l0.18,0.03l0.03,0.01l0.17,0.03l0.03,0l0.17,0.03l0.03,0.01
	c0.28,0.05,0.54,0.11,0.81,0.18l0.17,0.04l0.03,0.01c0.27,0.07,0.53,0.14,0.79,0.22l0.16,0.05l0.04,0.01
	c0.52,0.16,1.02,0.35,1.5,0.54l0.14,0.06l0.18,0.07c9.85-13.39,25.43-22.29,43.14-23.1v0c0.29-0.01,0.58-0.02,0.87-0.03
	c0.29-0.01,0.58-0.02,0.87-0.02C149.2,0,149.5,0,149.79,0c0.29,0,0.58,0,0.87,0.01c0.29,0,0.58,0.01,0.86,0.02
	c0.29,0.01,0.57,0.02,0.86,0.03h0c0.28,0.01,0.57,0.03,0.86,0.05l0,0c17.13,1.03,32.22,9.66,41.94,22.56
	c1.39-0.48,2.9-0.83,4.44-0.94l0.04,0l0.15-0.01l0.15-0.01l0.04,0l0.04,0l0.15-0.01l0.04,0l0.15,0l0.04,0l0.15,0h0.04l0.15,0h0.04
	l0.19,0l0.15,0.01l0.03,0l0.15,0.01l0.03,0l0.16,0.01l0.03,0l0.16,0.01l0.03,0l0.16,0.02l0.03,0c0.37,0.04,0.75,0.1,1.12,0.17
	l0.17,0.03l0.02,0l0.16,0.04l0.02,0.01l0.17,0.04l0.02,0l0.17,0.04l0.02,0.01l0.17,0.05l0.02,0.01l0.17,0.05l0.02,0.01l0.17,0.05
	l0.01,0l0.18,0.06l0.17,0.06l0.01,0.01l0.17,0.07l0.01,0l0.17,0.07l0.01,0.01c0.3,0.13,0.6,0.27,0.89,0.42l0.01,0l0.17,0.09l0,0
	l0.17,0.1l0,0l0.17,0.1l0,0l0.17,0.11v0l0.17,0.11c3.18,2.16,5.01,3.11,6.57,3.73c0.7,0.28,1.36,0.49,2.05,0.72l0.36,0.13l1.45,0.35
	c0.78,0.17,1.68,0.37,2.65,0.69c2.43,0.79,5.33,2.32,8.14,6.08c0.2,0.27,0.3,0.39,1.86,0.51c4.06,0.3,8.4,1.02,12.94,6.11
	c1.52,1.72,3.68,2.58,7.2,2.85c4.09,0.32,8.3,1.08,11.45,4.23c2.69,2.66,7.09,5.44,9.38,6.23c4.95,1.73,8.37,0.45,9.55-1.59
	c0.26-0.43,0.43-0.91,0.52-1.41c0.04-0.26,0.07-0.52,0.07-0.79c0-2.23-1.49-4.86-4.18-7.22l-0.34-0.28l-1.53-1.25
	c-3.24-2.55-5.57-4.54-6.14-6.76c-0.15-0.57-0.21-1.22-0.21-1.91c0-1.68,0.46-3.66,1.61-5.3c1.02-1.42,3-3.19,6.6-3.54
	c5.01-0.46,9.03-3.32,9.62-4.17c0.94-1.35,2.44-2.07,4.03,0.56c0.34,1.28,0.51,2.52,0.51,3.72c0,2.47-0.69,4.7-2.03,6.44
	c-1.43,1.86-4.32,4.05-9.98,4.05c-0.12,0-0.29,0.06-0.43,0.11c0.28,0.36,0.98,1.07,2.87,2.1c4.15,2.27,8.01,7.18,8.05,13.79
	c0,1.46-0.61,3.19-1.1,4.57c-0.43,1.19-1.16,2.6-2.4,3.88c-0.15,0.15-0.29,0.3-0.45,0.44c-2.34,2.17-6.23,3.88-12.72,3.49
	c-0.65-0.04-1.34-0.1-2.05-0.18c-0.17,3.27-1.07,7.17-2.33,9.13c-0.39,0.62-0.46,1.03-0.46,1.23c0,0.08,0.01,0.13,0.01,0.17
	c0.04,0.01,2.88,1.69,2.88,1.69l0.46,0.23c0,0,0.26,0.13,0.3,0.15c0.04-0.02,0.98-0.06,0.98-0.06l0.18-0.03l0.02,0
	c1.78-0.17,4.49-1.04,5.64,2.18c0.3,0.85,0.49,1.6,0.66,2.26c0.35,1.35,0.65,2.35,1.83,3.26c0,0,0.58-0.5,1.25-1.09
	c0.54-0.48,1.13-1.02,1.5-1.39c0.82-0.84,2.34-0.41,3.44,0c1.11,0.42,2.48,1.38,3.45,1.93c0.98,0.55,1.52,1.24,1.8,2.07
	c0.29,0.83,0.97,1.37,2,1.92c1,0.57,2.43,2.38,2.43,4.84c0,0.38,0.04,0.7,0.15,1.04c0.07,0.23,0.17,0.46,0.31,0.73
	c1.39,2.81,0.27,4.23-0.53,4.82c-1.09,0.81-3,1.15-4.8,0.86l0.01,0.46l-2.63-0.35c-1.02-0.13-2.36,0.13-3.16,0.3l-0.19,0.05
	c-1.87,0.37-4.32-0.26-5.69-2.5c-0.05-0.08-0.1-0.17-0.15-0.25c-0.7-1.23-1.79-2.38-2.33-2.69c-0.77,0.21-1.99,0.5-3.45,0.35
	c-1.35-0.14-2.9-0.65-4.48-1.96c-0.26-0.22-0.53-0.46-0.78-0.72c-2.32-2.33-5.39-2.81-7.31-2.51l-1.15,0.2
	c-2.37,0.43-5.33,0.98-8.07-0.69c-0.68-0.41-1.66-0.84-2.62-1.25c-2.48-1.08-5.05-2.2-5.4-4.54c-0.06-0.42-0.51-1.19-0.89-1.79
	c-0.33-0.54-0.69-1.13-0.96-1.76c-0.26-0.6-0.45-1.24-0.48-1.91c-0.79,0.2-1.62,0.3-2.49,0.25c-0.29-0.01-0.59-0.04-0.89-0.09
	l-1.08-0.17c-1.81-0.31-5.62-0.93-6.83-0.49c-2.41,0.87-10,1.29-12.08,0.81c0,0-0.76-0.17-1.49-0.32c-0.69,0.71-1.47,1.39-2.28,1.98
	c1.52,0.08,2.86-0.11,3.78,0.13l1.91,0.5c0.61-0.18,2.1-0.16,2.95-0.08l2.24,0.17l2.55,0.25c1.23,0.25,2.54,0.78,2.32,3.19
	c-0.09,0.74-0.5,1.8-1.13,2.41c-0.35,0.38-1.68,2.31-1.97,2.92l-0.1,0.19c-0.52,1.11-1.29,2.13-3.54,2.13
	c-0.28,0-0.64,0.01-0.85,0.03c-0.07,0.18-0.25,0.52-0.25,0.52c-0.51,1.15-1.23,2.75-2.63,3.67l-0.37,0.27
	c-1.12,0.8-2.99,2.12-5.84,1.08l-0.98-0.35c-2.49-0.9-6.26-2.24-8.16-3.28l-0.27-0.15c-1.77-0.97-2.16-1.16-2.8-1.07l-0.36,0.06
	c-1.36,0.19-3.92,0.53-5.69-2.4l-0.16-0.25c-8.39,11.51-21,19.75-35.55,22.44l-0.06,0.01c-0.5,0.09-0.99,0.18-1.5,0.25l-0.19,0.03
	l-0.68,0.1c-0.27,0.04-0.53,0.07-0.8,0.11l-0.49,0.06l-0.77,0.08l-0.53,0.05c-0.35,0.03-0.7,0.06-1.05,0.09l-0.33,0.02
	c-0.32,0.02-0.64,0.04-0.96,0.06l-0.35,0.02c-0.37,0.02-0.74,0.03-1.12,0.04l-0.38,0.01c-0.39,0.01-0.79,0.01-1.18,0.01
	c-0.41,0-0.81-0.01-1.21-0.02l-0.36-0.01c-0.36-0.01-0.71-0.02-1.07-0.04l-0.44-0.02c-0.3-0.02-0.6-0.03-0.9-0.06l-0.38-0.03
	c-0.36-0.03-0.71-0.06-1.07-0.09l-0.53-0.06l-0.7-0.08l-0.39-0.05c-0.37-0.05-0.73-0.1-1.1-0.15l-0.44-0.07l-0.78-0.12l-0.4-0.07
	c-0.31-0.05-0.63-0.11-0.94-0.17l-0.68-0.13l-0.35-0.07c-0.46-0.1-0.93-0.2-1.39-0.31l-0.12-0.03l-0.72-0.18l-0.37-0.1
	c-0.43-0.11-0.86-0.23-1.29-0.35l-0.15-0.04c-12.76-3.68-23.66-11.72-31.01-22.39l-0.97,1.47c-1.75,2.93-4.31,2.59-5.68,2.4
	l-0.36-0.06c-0.64-0.09-1.05,0.1-2.8,1.07l-0.28,0.15c-1.89,1.04-5.64,2.38-8.15,3.28l-0.98,0.35c-2.85,1.04-4.73-0.28-5.83-1.08
	l-0.39-0.27c-1.4-0.93-2.12-2.52-2.63-3.67c0,0-0.17-0.34-0.25-0.52c-0.22-0.03-0.57-0.03-0.86-0.03c-2.22,0-3.02-1.02-3.53-2.13
	l-0.09-0.19c-0.3-0.61-1.62-2.55-1.98-2.92c-0.62-0.62-1.05-1.67-1.12-2.41c-0.23-2.41,1.09-2.94,2.31-3.19l2.56-0.25l2.24-0.17
	c0.83-0.08,2.33-0.1,2.94,0.08l1.91-0.5c0.91-0.24,2.26-0.05,3.77-0.13c-0.8-0.6-1.55-1.27-2.27-1.98
	c-0.73,0.15-1.49,0.32-1.49,0.32c-2.09,0.48-9.66,0.06-12.06-0.81c-1.22-0.44-5.02,0.18-6.84,0.49l-1.09,0.17
	c-1.18,0.18-2.31,0.11-3.35-0.17c-0.06,1.37-0.8,2.62-1.44,3.67c-0.37,0.61-0.84,1.37-0.9,1.79c-0.33,2.35-2.93,3.46-5.4,4.54
	c-0.96,0.41-1.93,0.83-2.62,1.25c-2.71,1.67-5.69,1.12-8.06,0.69l-1.15-0.2c-1.91-0.3-4.98,0.18-7.31,2.51
	c-3.56,3.55-7.1,2.77-8.71,2.33c-0.53,0.32-1.63,1.46-2.33,2.69c-1.34,2.44-3.91,3.14-5.85,2.75l-0.19-0.05
	c-0.79-0.17-2.12-0.43-3.14-0.3l-2.65,0.35l0.03-0.46c-1.81,0.29-3.73-0.04-4.82-0.86c-0.8-0.6-1.92-2.01-0.51-4.82
	c0.33-0.67,0.44-1.14,0.44-1.77c0-2.45,1.42-4.27,2.42-4.84c1.04-0.55,1.73-1.09,2.01-1.92c0.27-0.83,0.81-1.52,1.79-2.07
	c0.97-0.55,2.34-1.51,3.44-1.93c1.1-0.41,2.62-0.84,3.45,0c0.84,0.81,2.75,2.48,2.75,2.48c1.75-1.35,1.59-2.92,2.5-5.51
	c1.14-3.22,3.86-2.35,5.63-2.18l0.2,0.03c0,0,0.95,0.04,0.98,0.06c0.05-0.03,0.32-0.15,0.32-0.15l0.44-0.23c0,0,2.85-1.67,2.88-1.69
	c0.01-0.03,0.01-0.09,0.01-0.17c0-0.2-0.07-0.62-0.45-1.23c-1.27-1.96-2.17-5.86-2.33-9.13c-0.46,0.05-0.9,0.1-1.34,0.13
	C18.9,64.59,14.79,62.84,12.39,60.59L12.39,60.59z M272.81,76.42l-0.2,0.03L272.81,76.42L272.81,76.42z M203.05,21.93
	c-0.37-0.08-0.75-0.13-1.12-0.17L203.05,21.93L203.05,21.93z M205.96,22.98c-0.29-0.16-0.59-0.3-0.89-0.42L205.96,22.98
	L205.96,22.98z M156.95,113.14c0.27-0.03,0.54-0.07,0.8-0.11L156.95,113.14L156.95,113.14z M154.11,113.42
	c0.35-0.03,0.7-0.05,1.05-0.09L154.11,113.42L154.11,113.42z M152.82,113.5c0.32-0.02,0.64-0.04,0.96-0.06L152.82,113.5
	L152.82,113.5z M151.35,113.56c0.37-0.01,0.74-0.02,1.12-0.04L151.35,113.56L151.35,113.56z M148.58,113.57
	c0.4,0.01,0.81,0.02,1.21,0.02c0.39,0,0.79-0.01,1.18-0.01L148.58,113.57L148.58,113.57z M147.15,113.52
	c0.36,0.02,0.71,0.03,1.07,0.04L147.15,113.52L147.15,113.52z M145.81,113.45c0.3,0.02,0.6,0.04,0.9,0.06L145.81,113.45
	L145.81,113.45z M144.36,113.33c0.36,0.03,0.71,0.06,1.07,0.09L144.36,113.33L144.36,113.33z M141.64,113
	c0.36,0.05,0.73,0.1,1.1,0.15L141.64,113L141.64,113z M139.07,112.57c0.31,0.06,0.63,0.12,0.94,0.17L139.07,112.57L139.07,112.57z"
	/>
<path class="st1" d="M99.48,42.01c-0.4-0.72-0.24-1.46,0.17-2.17c0.91-1.4,1.76,0.13,1.76,0.13c3.15,4.39,0.82,10.96,0.82,10.96
	C101.91,44.88,99.48,42.01,99.48,42.01L99.48,42.01z M126.62,71.07c0.05-1.29,0.16-4.15-1.15-5.18c-0.48-0.38-2.39-2.48-2.39-2.48
	c-0.29-0.51-0.51-0.54-0.51-0.54c-0.39-0.04-0.9,0.88-0.9,0.88c-1.36,2.63-2.72,2.31-2.72,2.31c-0.01-0.48,0.31-1.01,0.31-1.01
	c0.37-0.7,1.95-3.84,1.95-3.84c0.2-0.46,0.38-1.06,0.38-1.06c1.31-2.04,2.55-0.49,2.55-0.49c0.55,1.08,3.5,4.59,3.5,4.59
	c0.65,0.78,0.72,1.61,0.72,1.61C129.03,70.68,126.62,71.07,126.62,71.07L126.62,71.07L126.62,71.07z M118.85,83.34
	c-0.56-0.01-0.7-0.22-0.63-0.83c0.38-1.71,1.75-2.45,1.75-2.45c2.57-1.54,2.89,0,2.89,0c0.47,2.75-1.7,3.09-1.7,3.09
	C120.72,83.3,118.85,83.34,118.85,83.34L118.85,83.34L118.85,83.34z M6.92,91.31c0,0,0.56,0.41,0.26,1.23c0,0-1.44,3.93-1.37,5.25
	c0,0-3.18,0.57-3.62-1c0,0-0.08-0.61,0.43-1.48c0,0,0.54-0.82,0.68-2.31c0,0-0.05-3.77,2.39-2.77C6.19,90.49,6.57,90.89,6.92,91.31
	L6.92,91.31L6.92,91.31z M10.8,85.06c0.52-0.44,1.29-0.68,1.97-0.53c1.54,0.33,0.61,1.66,0.61,1.66c-0.62,1.17-2.66,3.13-2.66,3.13
	c-1.81,1.35-3.24-0.26-3.24-0.26c-1.34-1.32,0.4-1.96,0.4-1.96C8.9,86.7,10.8,85.06,10.8,85.06L10.8,85.06L10.8,85.06z M29.4,61.5
	c0,0-0.58,5.57,1.94,10.48c0,0,1.86,2.64-0.07,4.33l-3.85,2.24c0,0-0.52,0.38-2.23,0.25c0,0-2.37-0.59-3.16,0.46
	c0,0-0.69,2.01-1.55,3.67c0,0-1.75,4.02-4.65,5.31c0,0-2.31,0.53-3.01,2.53c0,0-0.75,1.41-2.24,1.47c0,0-1.11,0.35-1.85,2.83
	c0,0-0.4,1.6-0.38,2.83c0,0,1.9-0.25,3.13,0.2c0,0,3.04,1.02,4.4-1.48c0,0,2.63-4.5,4.57-3.82c0,0,3.91,1.31,6.67-1.54
	c0,0,3.8-4.15,9.16-3.29c0,0,6.04,1.22,7.92-0.17c0,0,3.81-1.99,5.24-2.48c0,0,1.75-0.51,1.93-2.43c0,0,1.06-2.69,1.84-3.59
	l-2.88-0.03c0,0-2.61,4.39-7.04,5.71c0,0-2.42,0.97-7.29,0.18c0,0-6.98-1.58-13.12,5.04c0,0-0.84,1.21-2.03,0.73
	c0,0,3.39-5.78,10.83-7.15c0,0,2.44-0.52,4.47-0.19c0,0,10.02,0.29,14.67-9.57c0,0-0.5-8.41,1.71-10.41c0,0,0.86-0.26,0.69,1.37
	c0,0-1.53,8.81,1.34,10.52c0,0,1.66,1.31,4.74,0.82c0,0,4.66-1.11,8.46-0.46c0,0,5.83,1.38,10.84,0.74c0,0-1.3-1.99-1.05-4.37
	c0,0,0.72-1.71,1.54-0.61c0,0,1.93,6.37,7.2,8.28c0,0,4.7,1.71,4.63,7.68c0,0-0.72,0.82-6.96,3.03c0,0-2.33,0.74-3.08-1.01
	c0,0-3.01-6.44-5.63-6.24l-4.92,0.4c0,0-1.68,0.43-0.44,1.77c0,0,1.68,2.24,2.37,3.58c0,0,0.2,1.14,1.78,0.9c0,0,2.2-1.09,3.43,2.99
	c0,0,1.13,2.04,3.05,2.69c0,0,1.79,0.6,3.48-0.35c0,0,8.12-2.98,9.54-4.04c0,0,1.76-0.98,3.15-0.51c0,0,2.44,0.58,3.44-1.34
	l2.52-3.89c0,0,0.55-0.96,0.48-2.16c0,0,0.23-1.19-0.78-2.41c0,0-0.95-1.01-1.1-1.73l-1.79-4.22c0,0-0.73-1.13-1.53-1.59l-2.4,0.18
	c0,0,1.65,4.21,2.85,5.93c0,0,1.63,2.5,1.55,4.09c0,0-0.11,1.11-0.55,1.58c0,0-0.55,0.88-0.78,1.31c0,0-0.73,1.58-1.32,1.93
	c0,0-1.02,0.6-1.27,0.63c0,0-0.44,0.12-0.11-0.67c0,0,1.34-2.82,1.25-4.34c0,0,0.26-1.57-0.86-2.49c0,0-2.61-4.12-2.98-5.35
	c0,0-0.82-1.65-1.26-1.93c0,0-0.91-1.2,0.56-1.76c0,0,3.67-0.83,4.32-1.28c0,0,1.76-0.53,2.91-4.21c0,0,1.58-4.28,1.55-6.92
	c0,0,3.09,5.96-1.84,12.02c0,0,3.9,1.15,5.51,0c0,0,4.86-0.71,5.8-0.97c0,0,1.22-0.3,0.52,0.57c0,0-1.46,2.09-1.59,3.45
	c0,0-0.09,1.09-0.99,1.72c0,0-2.76,1.93-3,3.79c0,0-0.59,1.78,0.63,1.36c0,0,1.65-0.77,2.24,0.01c0,0,0.17,0.08-0.47,0.8
	c0,0-1.66,1.44-1.78,3.38c0,0,0.31,2.24,0.89,2.95c0,0,0.75,1.04,1.93,0.71c0,0,0.31-0.25,0.88-0.08c0,0,0.58,0,2.11-0.53
	c0,0,2.31-0.64,3.09-0.91c0,0,2.94-1.05,4.39-0.98c0,0,0.94-0.1,2.15,0.14c0,0,3.68,0.42,6.13-2.29c0,0,1.87-1.48,2.5-0.04
	c0,0,4.48,6.01,11.73,4.42c0,0-5.77-2.37-7.26-5.6c0,0-0.2-2.74-3.22-6.55c0,0-0.92-1.26-0.03-1.59c0,0,0.51-0.39,1.64,0.74
	c0,0,2.87,2.75,3.91,5.27c0,0,3.56,5.39,8.7,3.58c0,0-4.03-1.56-5.93-4.46c0,0-1.17-3.93-5.11-6.85c0,0-0.16-4.41-1.99-6.89
	c0,0-0.93-4.14-1.19-5.11c0,0-0.99-3.64-0.98-4.65c0,0,0.33-4.75-2.74-8.46c0,0-2.05-3.96-5.25-6.72c0,0-2.43-3-4.24-4.84
	c0,0-2.38-2.79-7.56-6.43c0,0-2.35-1.71-4.07-3.54c0,0-9.15-6.58-15.75-1.3c0,0-4.56,3.1-8.38,4.07c0,0-7.83,0.91-11.17,6.35
	c0,0-0.29,1-3.44,1.39c0,0-6.93-0.84-12.04,5.98c0,0-2.37,2.32-7.07,2.88c0,0-7.66-0.78-12.64,5.09c0,0-12.58,10.97-20.08,3.86
	c0,0-3.89-3.68,0.56-10.34c0,0,2.82-3.4,7.63-6.96c0,0,3.9-2.75,2.11-7.02c0,0-0.95-4.13-6.79-4.24c0,0-7.34-1.42-10.3-5.12
	c0,0-3.31,11.67,9.69,11.47c0,0,3.39,0.5,2.2,3.19c0,0-1.66,2.3-3.89,3.14c0,0-3.92,1.72-5.69,7.43c0,0-3.96,10,5.7,13.86
	C21.28,62.55,25.57,62.17,29.4,61.5L29.4,61.5L29.4,61.5z"/>
<path class="st1" d="M198.44,42.01c0.4-0.72,0.24-1.46-0.17-2.17c-0.91-1.4-1.76,0.13-1.76,0.13c-3.15,4.39-0.82,10.96-0.82,10.96
	C196.01,44.88,198.44,42.01,198.44,42.01L198.44,42.01z M171.3,71.07c-0.05-1.29-0.16-4.15,1.15-5.18c0.48-0.38,2.4-2.48,2.4-2.48
	c0.29-0.51,0.51-0.54,0.51-0.54c0.39-0.04,0.9,0.88,0.9,0.88c1.36,2.63,2.72,2.31,2.72,2.31c0.01-0.48-0.31-1.01-0.31-1.01
	c-0.37-0.7-1.95-3.84-1.95-3.84c-0.2-0.46-0.38-1.06-0.38-1.06c-1.31-2.04-2.55-0.49-2.55-0.49c-0.55,1.08-3.5,4.59-3.5,4.59
	c-0.66,0.78-0.72,1.61-0.72,1.61C168.89,70.68,171.3,71.07,171.3,71.07L171.3,71.07L171.3,71.07z M179.06,83.34
	c0.56-0.01,0.7-0.22,0.63-0.83c-0.38-1.71-1.75-2.45-1.75-2.45c-2.57-1.54-2.89,0-2.89,0c-0.47,2.75,1.7,3.09,1.7,3.09
	C177.2,83.3,179.06,83.34,179.06,83.34L179.06,83.34L179.06,83.34z M291,91.31c0,0-0.56,0.41-0.26,1.23c0,0,1.43,3.93,1.37,5.25
	c0,0,3.18,0.57,3.62-1c0,0,0.09-0.61-0.43-1.48c0,0-0.54-0.82-0.68-2.31c0,0,0.05-3.77-2.39-2.77
	C291.73,90.49,291.35,90.89,291,91.31L291,91.31L291,91.31z M287.12,85.06c-0.52-0.44-1.29-0.68-1.97-0.53
	c-1.54,0.33-0.61,1.66-0.61,1.66c0.62,1.17,2.66,3.13,2.66,3.13c1.81,1.35,3.24-0.26,3.24-0.26c1.34-1.32-0.41-1.96-0.41-1.96
	C289.02,86.7,287.12,85.06,287.12,85.06L287.12,85.06L287.12,85.06z M268.52,61.5c0,0,0.58,5.57-1.94,10.48c0,0-1.86,2.64,0.07,4.33
	l3.85,2.24c0,0,0.52,0.38,2.23,0.25c0,0,2.37-0.59,3.16,0.46c0,0,0.69,2.01,1.55,3.67c0,0,1.75,4.02,4.65,5.31
	c0,0,2.31,0.53,3.01,2.53c0,0,0.75,1.41,2.24,1.47c0,0,1.11,0.35,1.85,2.83c0,0,0.4,1.6,0.38,2.83c0,0-1.9-0.25-3.14,0.2
	c0,0-3.04,1.02-4.4-1.48c0,0-2.63-4.5-4.57-3.82c0,0-3.91,1.31-6.67-1.54c0,0-3.8-4.15-9.16-3.29c0,0-6.04,1.22-7.92-0.17
	c0,0-3.81-1.99-5.24-2.48c0,0-1.75-0.51-1.93-2.43c0,0-1.06-2.69-1.84-3.59l2.88-0.03c0,0,2.61,4.39,7.04,5.71
	c0,0,2.42,0.97,7.29,0.18c0,0,6.98-1.58,13.12,5.04c0,0,0.84,1.21,2.03,0.73c0,0-3.39-5.78-10.83-7.15c0,0-2.43-0.52-4.47-0.19
	c0,0-10.03,0.29-14.67-9.57c0,0,0.51-8.41-1.71-10.41c0,0-0.86-0.26-0.69,1.37c0,0,1.53,8.81-1.34,10.52c0,0-1.67,1.31-4.74,0.82
	c0,0-4.67-1.11-8.45-0.46c0,0-5.83,1.38-10.84,0.74c0,0,1.3-1.99,1.05-4.37c0,0-0.72-1.71-1.54-0.61c0,0-1.93,6.37-7.2,8.28
	c0,0-4.71,1.71-4.63,7.68c0,0,0.72,0.82,6.96,3.03c0,0,2.33,0.74,3.08-1.01c0,0,3.01-6.44,5.63-6.24l4.92,0.4
	c0,0,1.68,0.43,0.44,1.77c0,0-1.68,2.24-2.37,3.58c0,0-0.2,1.14-1.78,0.9c0,0-2.19-1.09-3.43,2.99c0,0-1.13,2.04-3.05,2.69
	c0,0-1.79,0.6-3.48-0.35c0,0-8.12-2.98-9.53-4.04c0,0-1.76-0.98-3.15-0.51c0,0-2.43,0.58-3.44-1.34l-2.52-3.89
	c0,0-0.56-0.96-0.48-2.16c0,0-0.23-1.19,0.78-2.41c0,0,0.95-1.01,1.1-1.73l1.8-4.22c0,0,0.73-1.13,1.53-1.59l2.4,0.18
	c0,0-1.65,4.21-2.86,5.93c0,0-1.63,2.5-1.55,4.09c0,0,0.11,1.11,0.55,1.58c0,0,0.55,0.88,0.78,1.31c0,0,0.72,1.58,1.31,1.93
	c0,0,1.02,0.6,1.27,0.63c0,0,0.45,0.12,0.11-0.67c0,0-1.34-2.82-1.25-4.34c0,0-0.26-1.57,0.85-2.49c0,0,2.61-4.12,2.99-5.35
	c0,0,0.82-1.65,1.25-1.93c0,0,0.91-1.2-0.56-1.76c0,0-3.67-0.83-4.32-1.28c0,0-1.76-0.53-2.91-4.21c0,0-1.58-4.28-1.55-6.92
	c0,0-3.09,5.96,1.84,12.02c0,0-3.9,1.15-5.51,0c0,0-4.86-0.71-5.8-0.97c0,0-1.22-0.3-0.52,0.57c0,0,1.46,2.09,1.59,3.45
	c0,0,0.09,1.09,0.98,1.72c0,0,2.76,1.93,3,3.79c0,0,0.59,1.78-0.63,1.36c0,0-1.65-0.77-2.24,0.01c0,0-0.17,0.08,0.47,0.8
	c0,0,1.66,1.44,1.78,3.38c0,0-0.31,2.24-0.89,2.95c0,0-0.75,1.04-1.93,0.71c0,0-0.31-0.25-0.88-0.08c0,0-0.58,0-2.11-0.53
	c0,0-2.31-0.64-3.08-0.91c0,0-2.94-1.05-4.4-0.98c0,0-0.94-0.1-2.15,0.14c0,0-3.68,0.42-6.13-2.29c0,0-1.87-1.48-2.5-0.04
	c0,0-4.48,6.01-11.73,4.42c0,0,5.77-2.37,7.27-5.6c0,0,0.2-2.74,3.22-6.55c0,0,0.92-1.26,0.03-1.59c0,0-0.51-0.39-1.64,0.74
	c0,0-2.87,2.75-3.9,5.27c0,0-3.57,5.39-8.7,3.58c0,0,4.03-1.56,5.93-4.46c0,0,1.17-3.93,5.11-6.85c0,0,0.15-4.41,1.99-6.89
	c0,0,0.94-4.14,1.19-5.11c0,0,0.99-3.64,0.98-4.65c0,0-0.33-4.75,2.74-8.46c0,0,2.05-3.96,5.26-6.72c0,0,2.43-3,4.24-4.84
	c0,0,2.38-2.79,7.57-6.43c0,0,2.35-1.71,4.07-3.54c0,0,9.15-6.58,15.75-1.3c0,0,4.56,3.1,8.38,4.07c0,0,7.83,0.91,11.17,6.35
	c0,0,0.28,1,3.44,1.39c0,0,6.93-0.84,12.04,5.98c0,0,2.37,2.32,7.07,2.88c0,0,7.66-0.78,12.64,5.09c0,0,12.58,10.97,20.09,3.86
	c0,0,3.89-3.68-0.56-10.34c0,0-2.82-3.4-7.63-6.96c0,0-3.9-2.75-2.11-7.02c0,0,0.94-4.13,6.79-4.24c0,0,7.33-1.42,10.3-5.12
	c0,0,3.31,11.67-9.69,11.47c0,0-3.39,0.5-2.2,3.19c0,0,1.66,2.3,3.89,3.14c0,0,3.93,1.72,5.7,7.43c0,0,3.96,10-5.71,13.86
	C276.64,62.55,272.34,62.17,268.52,61.5L268.52,61.5L268.52,61.5z"/>
</svg>
