<?xml version="1.0" encoding="utf-8"?>
<!-- Generator: Adobe Illustrator 25.3.0, SVG Export Plug-In . SVG Version: 6.00 Build 0)  -->
<svg version="1.1" id="Layer_1" xmlns="http://www.w3.org/2000/svg" xmlns:xlink="http://www.w3.org/1999/xlink" x="0px" y="0px"
	 viewBox="0 0 18.48 25" style="enable-background:new 0 0 18.48 25;" xml:space="preserve">
<style type="text/css">
	.st0{fill-rule:evenodd;clip-rule:evenodd;fill:#FFFFFF;}
	.st1{fill-rule:evenodd;clip-rule:evenodd;}
</style>
<polygon class="st0" points="18.48,2.12 18.48,2.59 9.24,0.97 0,2.59 0,2.12 9.24,0.49 18.48,2.12 "/>
<polygon class="st1" points="18.48,1.63 18.48,2.12 9.24,0.49 0,2.12 0,1.63 9.24,0 18.48,1.63 "/>
<path class="st1" d="M18.48,2.59L9.24,0.97L0,2.59l0,1.64l0.08-0.05c0.03-0.02,3.31-1.84,9.18-1.84c5.87,0,9.11,1.82,9.14,1.84
	l0.08,0.05L18.48,2.59L18.48,2.59z"/>
<path class="st0" d="M9.26,2.67c5.3,0,8.4,1.49,8.9,1.75c0,0.18,0,4.73,0,4.73c0,2.58-0.61,5.15-1.8,7.64
	c-2.62,5.44-6.57,7.57-7.12,7.85c-0.55-0.28-4.5-2.41-7.12-7.85c-1.2-2.49-1.8-5.06-1.8-7.64c0,0,0-4.55,0-4.73
	C0.82,4.16,3.96,2.67,9.26,2.67L9.26,2.67z"/>
<path class="st1" d="M0.08,4.19L0,4.24v4.92c0,2.63,0.62,5.24,1.84,7.78c2.86,5.94,7.3,8.02,7.34,8.04L9.24,25l0.07-0.03
	c0.04-0.02,4.48-2.1,7.34-8.04c1.22-2.53,1.84-5.15,1.84-7.78V4.24L18.4,4.19c-0.03-0.02-3.27-1.84-9.14-1.84
	C3.39,2.36,0.11,4.17,0.08,4.19L0.08,4.19z M9.26,2.67c5.3,0,8.4,1.49,8.9,1.75c0,0.18,0,4.73,0,4.73c0,2.58-0.61,5.15-1.8,7.64
	c-2.62,5.44-6.57,7.57-7.12,7.85c-0.55-0.28-4.5-2.41-7.12-7.85c-1.2-2.49-1.8-5.06-1.8-7.64c0,0,0-4.55,0-4.73
	C0.82,4.16,3.96,2.67,9.26,2.67L9.26,2.67z"/>
<path class="st1" d="M10.65,20.06c0.15,0.11,0.04,0.29-0.07,0.32c-0.12,0.03-0.22-0.1-0.28,0.05c-0.03,0.08,0.06,0.66,0.66,0.66
	c0.56,0,0.83-0.72,0.88-0.83c0.05-0.11,0.09-0.25,0.03-0.25c-0.25,0-0.32,0.15-0.32,0.15s-0.02-0.14,0.1-0.25
	c0.1-0.09,0.23-0.07,0.28-0.07c0.1,0,0.08-0.07,0.15-0.22c0.14-0.35,0.23-0.36,0.32-0.52c0.07-0.13-0.07-0.18-0.34-0.21
	c-0.28-0.03-0.43-0.02-0.55,0c-0.12,0.02-0.25,0.07-0.33,0.26c-0.04,0.1,0.03,0.2,0.18,0.18c0.15-0.03,0.29-0.14,0.29-0.14
	s-0.07,0.26-0.28,0.31c-0.2,0.05-0.44-0.07-0.41-0.28c0.04-0.26,0.22-0.46,0.56-0.52c0.33-0.07,0.67-0.02,0.96,0.06
	c0.3,0.07,0.51,0.03,0.79,0.01c0.59-0.03,0.96-0.17,0.96-0.17s-0.27,0.22-0.64,0.32c-0.37,0.1-0.7,0.06-0.81,0.1
	c-0.09,0.04-0.21,0.21-0.31,0.4c-0.09,0.18-0.19,0.39-0.15,0.39c0.34,0.01,0.47-0.06,0.47-0.06s-0.07,0.15-0.23,0.22
	c-0.11,0.05-0.31,0.05-0.31,0.05s-0.09,0.22-0.18,0.42c-0.1,0.2-0.26,0.51-0.55,0.66c-0.29,0.15-0.85,0.34-1.2-0.16
	C9.95,20.42,10.29,19.82,10.65,20.06L10.65,20.06z"/>
<path class="st1" d="M6.33,20.13c0.07,0.18-0.08,0.27-0.16,0.27c-0.08,0-0.19-0.06-0.21,0.04c-0.02,0.11,0.23,0.65,0.8,0.65
	c0.57,0,0.84-0.33,0.8-0.63C7.51,20.13,6.98,20,6.56,19.78c-0.2-0.11-0.67-0.18-0.67-0.61c0-0.93,1.41-0.33,1.41-0.33
	s0-0.12,0.07-0.12c0.03,0,0.1-0.02,0.12,0.09c0.02,0.11,0.11,0.66,0.11,0.66s-0.21-0.42-0.78-0.61c-0.1-0.04-0.54-0.12-0.54,0.23
	c0.01,0.21,0.26,0.3,0.69,0.47c0.57,0.22,0.87,0.43,0.73,1.04c-0.13,0.58-0.7,0.67-0.97,0.67c-0.27,0-0.91-0.19-0.91-0.83
	C5.84,19.99,6.28,20,6.33,20.13L6.33,20.13z"/>
<path class="st1" d="M9.34,16.65l0.23,0.11c0.13,0.05,0.22,0.03,0.25,0.02c0.03-0.01,0.15-0.14,0.18-0.26
	c0.01-0.05,0.01-0.09-0.02-0.11c-0.09-0.11-0.25-0.6-0.31-0.86c-0.02-0.1,0-0.37,0.03-0.59c0.02-0.19,0.03-0.3,0.02-0.33
	c-0.02-0.05-0.08-0.09-0.16-0.14l-0.13-0.09c-0.07-0.06-0.07-0.13-0.07-0.21l-0.01-0.13c-0.03-0.12-0.62-0.72-0.71-0.73
	c-0.13-0.01-0.17,0.14-0.18,0.23c-0.01,0.05,0.05,0.28,0.11,0.48l0.06,0.25c0.06,0.39,0.47,1.06,0.64,1.35l0.08,0.14
	c0.04,0.08,0.02,0.15-0.04,0.18C9.25,16,8.72,15.94,8.46,15.88c-0.11-0.03-0.24-0.08-0.38-0.13c-0.15-0.06-0.29-0.12-0.38-0.12
	c-0.1-0.01-0.14,0.01-0.18,0.03l-0.06,0.02l-0.06-0.02c-0.07-0.03-0.2-0.09-0.56-0.12c-0.52-0.05-0.56,0.06-0.59,0.11
	c-0.03,0.07,0.29,0.41,0.35,0.46c0.07,0.06,0.31,0.15,0.45,0.12c0.16-0.03,0.43-0.06,0.47-0.05l0.05,0.03l0.05,0.04
	c0.05,0.02,0.34,0.03,0.43,0.04c0.1,0.01,0.37,0.06,0.57,0.1l0.22,0.04C8.94,16.45,9.17,16.56,9.34,16.65L9.34,16.65z"/>
<path class="st1" d="M14.77,9.85c-0.01-0.01-0.02-0.02-0.03-0.01c-0.01,0-0.01,0.01-0.02,0.02c-0.01,0.07-0.1,0.26-0.17,0.29
	c-0.15,0.06-0.22,0.23-0.28,0.36c-0.03,0.07-0.06,0.13-0.08,0.13c-0.01,0-0.02-0.01-0.03-0.03c-0.09-0.16-0.04-0.4,0-0.59l0.01-0.05
	c0.03-0.16,0.22-0.39,0.34-0.53l0.05-0.06c0.08-0.1,0.1-0.42,0.08-0.45c0,0-0.01,0-0.01,0v0c0,0,0,0,0,0.01c0,0,0,0,0,0c0,0,0,0,0,0
	c0,0.01-0.01,0.01-0.01,0.02c-0.02,0.1-0.21,0.31-0.53,0.59c-0.07,0.06-0.14,0.16-0.2,0.24c-0.04,0.05-0.09,0.12-0.1,0.12
	c-0.08-0.42,0.06-0.66,0.13-0.78l0.03-0.06c0.14-0.37,0.48-0.65,0.49-0.65c0-0.01,0-0.02,0-0.03c-0.01-0.01-0.04-0.01-0.08,0.01
	l-0.02,0.01c-0.12,0.06-0.49,0.24-0.71,0.67c-0.16,0.31-0.22,0.66-0.22,0.92c0,0.13,0.02,0.24,0.04,0.32
	c0.08,0.21,0.22,0.73,0.26,0.94c0.03,0.13,0.03,0.56,0.03,0.84c0,0.13,0,0.23,0,0.23c0,0-0.07,0.22-0.07,0.22
	c0,0-0.03,0.18-0.32,0.47c-0.29,0.29-0.6,0.38-0.61,0.39c-0.13,0.01-0.24,0-0.25-0.01c0-0.33-0.57-1.11-0.86-1.37
	c-0.3-0.26-0.54-0.45-0.94-0.69c-0.41-0.25-0.87-1.3-0.88-1.31c0,0-0.04-0.14-0.04-0.14S9.76,9.58,9.75,9.51
	c0.01,0.01,0.03,0.02,0.03,0.02l0.14,0.08c0,0,0.16,0.06,0.16,0.06c0,0,0.21,0.04,0.21,0.04c0,0,0.12,0.06,0.12,0.06
	c0,0,0.11,0.07,0.11,0.07l0.17,0.12c0,0,0.17,0.09,0.17,0.09c0,0,0.21,0.01,0.21,0.01l0-0.02c0,0-0.24-0.11-0.24-0.11
	c0,0-0.09-0.15-0.09-0.15c0,0-0.1-0.14-0.1-0.14c0,0-0.12-0.07-0.12-0.07c0,0-0.15-0.02-0.15-0.02c0,0-0.03-0.03-0.05-0.04
	c0.01-0.01,0.04-0.02,0.04-0.02c0,0,0.16,0.02,0.16,0.02c0,0,0.15,0.1,0.15,0.1l0.16,0.12c0,0,0.15,0.06,0.15,0.06l0.02,0.01
	l-0.06-0.17c0,0-0.12-0.12-0.12-0.12c0,0-0.18-0.15-0.18-0.15c0,0-0.14-0.07-0.14-0.07c0,0-0.15-0.05-0.15-0.05
	c0,0-0.16-0.1-0.16-0.1s0-0.01,0-0.02c0.02,0.01,0.22,0.09,0.22,0.09c0,0,0.19,0.05,0.19,0.05c0,0,0.16,0.06,0.16,0.06
	c0,0,0.23,0.11,0.23,0.11c0,0,0.19,0.04,0.19,0.04c0,0,0.23-0.04,0.23-0.04c0,0,0.22-0.15,0.22-0.15c0,0,0.04-0.1,0.04-0.1
	l0.01-0.02l-0.07,0.03c0,0-0.2,0.1-0.2,0.1l-0.14,0.03c0,0-0.16-0.03-0.16-0.03h0c0,0-0.13-0.12-0.13-0.12l-0.18-0.17
	c0,0-0.16-0.08-0.16-0.08c0,0-0.19-0.03-0.19-0.03c0,0-0.12-0.06-0.12-0.06c0,0,0,0,0-0.01c0-0.01,0-0.04-0.01-0.06
	c0.02,0,0.24,0.02,0.24,0.02c0,0,0.26-0.02,0.26-0.02c0,0,0.15,0.03,0.15,0.03c0,0,0.15,0.06,0.15,0.06c0,0,0.15,0.02,0.15,0.02
	l0.03,0l-0.17-0.16c0,0-0.17-0.12-0.17-0.12c0,0-0.14-0.05-0.14-0.05c0,0-0.24-0.02-0.24-0.02c0,0,0,0,0-0.01c0-0.01,0-0.03,0-0.04
	c0.01,0,0.11-0.02,0.11-0.02c0,0,0.18,0.04,0.18,0.04c0,0,0.17,0.1,0.17,0.1c0,0,0.18,0.06,0.18,0.06c0.01,0,0.26-0.04,0.26-0.04
	l0.02,0l-0.08-0.1c0,0-0.13-0.04-0.14-0.04c0,0-0.11-0.08-0.11-0.08l-0.16-0.11c0,0-0.12-0.04-0.12-0.04c0,0-0.19-0.03-0.19-0.03
	c0,0-0.09-0.09-0.09-0.09c0,0,0.01-0.03,0.01-0.04c0.02,0,0.1,0.03,0.1,0.03l0.13,0.06c0,0,0.18,0.06,0.18,0.06l-0.04-0.08
	c0,0-0.07-0.07-0.07-0.07c0,0-0.04-0.06-0.06-0.08c0.01,0,0.03-0.01,0.03-0.01c0,0,0.19,0.1,0.19,0.1c0,0,0.15,0.05,0.15,0.05
	c0,0,0.12,0.11,0.12,0.11c0,0,0.22,0.13,0.22,0.13l0.02,0.01l-0.04-0.11c0,0-0.12-0.16-0.12-0.16c0,0-0.1-0.17-0.1-0.17
	c0,0-0.18-0.19-0.18-0.19c0,0-0.23-0.12-0.23-0.12c0,0-0.09-0.1-0.09-0.1c0,0-0.16-0.16-0.16-0.16c0,0-0.02-0.06-0.02-0.09
	c0.03,0.01,0.16,0.05,0.16,0.05c0,0,0.18,0.05,0.18,0.05c0,0,0.13,0.08,0.13,0.08c0,0,0.11,0.13,0.11,0.13c0,0,0.17,0.07,0.17,0.07
	c0,0,0.43,0.06,0.43,0.06l0.03,0l-0.12-0.13c0,0-0.23-0.1-0.23-0.1s-0.14-0.1-0.14-0.1c0,0-0.08-0.14-0.08-0.14L11.22,7.1
	c0,0-0.13-0.12-0.13-0.12c0,0-0.16-0.09-0.16-0.09l-0.16-0.13c0,0-0.04-0.08-0.06-0.13c0.04,0.04,0.11,0.11,0.11,0.11l0.21,0.18
	c0,0,0.16,0.07,0.16,0.07s0.14,0.11,0.14,0.11l0.16,0.16c0.01,0,0.25,0.04,0.25,0.04l0.03,0l-0.25-0.22c0,0-0.06-0.18-0.06-0.18
	c0,0-0.13-0.13-0.13-0.13l-0.07-0.08c0,0-0.07-0.21-0.07-0.21c0,0-0.14-0.15-0.14-0.15c0,0-0.23-0.21-0.23-0.22c0,0,0,0,0,0
	c0,0-0.01-0.04-0.01-0.06c0.02,0.01,0.04,0.02,0.04,0.02l0.21,0.12c0,0,0.25,0.07,0.25,0.07c0,0,0.26,0.06,0.26,0.06
	c0,0,0.3,0.05,0.3,0.05L11.8,6.24c0,0-0.15-0.07-0.15-0.07c0,0-0.14-0.08-0.14-0.08c0,0-0.17-0.07-0.17-0.07l-0.15-0.06
	c0,0-0.1-0.13-0.15-0.2c0.05,0.03,0.13,0.09,0.13,0.09c0,0,0.13,0.01,0.13,0.01l0.41,0c0,0,0.17,0.09,0.17,0.09
	c0,0,0.14,0.15,0.14,0.15l0.02,0.02l-0.02-0.17c0-0.01-0.09-0.12-0.09-0.12c0,0-0.24-0.13-0.24-0.13c0,0-0.19-0.07-0.19-0.07
	c0,0-0.29-0.05-0.29-0.05v0c0,0-0.05-0.07-0.05-0.07c0,0-0.21-0.19-0.21-0.19c0,0-0.1-0.05-0.1-0.05c0,0-0.03-0.03-0.05-0.05
	c0.03,0,0.11,0,0.11,0c0,0,0.17,0.1,0.17,0.1c0,0,0.22,0.07,0.22,0.07c0,0,0.28,0.04,0.28,0.04h0c0,0,0.1,0.12,0.1,0.12
	c0,0,0.15,0.09,0.15,0.09c0,0,0.17,0.03,0.17,0.03l0.02,0l-0.36-0.44c0,0-0.17-0.09-0.17-0.09c0,0-0.2-0.06-0.2-0.06
	c0,0-0.18-0.2-0.18-0.2c0,0-0.22-0.13-0.22-0.13c0,0-0.13-0.03-0.16-0.04c0.01-0.02,0.04-0.07,0.04-0.07c0,0,0.18-0.08,0.18-0.08
	c0,0,0.26-0.05,0.26-0.05c0.01-0.01,0.03-0.07,0.03-0.07c0-0.01-0.11-0.08-0.11-0.08c0,0-0.13-0.04-0.13-0.04
	c-0.01,0-0.08,0.04-0.08,0.04c0,0-0.22,0.01-0.22,0.01c0,0-0.26-0.06-0.26-0.06c0,0-0.27-0.22-0.27-0.22c0,0-0.12-0.06-0.12-0.06
	c0,0-0.44-0.05-0.44-0.05c0-0.01-0.1-0.16-0.1-0.16c0,0-0.14-0.15-0.14-0.15c0,0-0.18-0.16-0.18-0.16L9.17,3.5L9.11,3.63
	c0,0-0.06,0.09-0.06,0.09c0,0,0,0,0,0c0,0.02,0.01,0.11,0.01,0.11c0,0.01,0.06,0.07,0.06,0.07c0,0-0.02,0.09-0.02,0.09
	c0-0.01-0.24,0-0.24,0c0,0-0.2-0.09-0.2-0.09c0,0-0.15-0.05-0.15-0.05c0,0-0.35,0.01-0.35,0.01c-0.01,0-0.07,0.1-0.07,0.1L8.08,3.97
	c0,0,0.15,0.02,0.15,0.02c0,0,0.02,0.02,0.04,0.02C8.26,4.03,8.23,4.05,8.23,4.05c0,0-0.21-0.01-0.21-0.01c0,0-0.15,0.06-0.15,0.06
	L7.85,4.11l0.07,0.05c0,0,0.32,0.01,0.32,0.01c0,0,0.24,0.06,0.24,0.06c0,0,0,0,0,0c0,0,0.05,0.07,0.05,0.07s0.03,0.05,0.04,0.06
	c-0.01,0.01-0.1,0.06-0.1,0.06c0,0-0.29,0.12-0.29,0.12c0,0-0.6,0.34-0.6,0.34c0,0-0.4,0.06-0.4,0.06c0,0-0.15,0.09-0.15,0.09
	c0,0-0.12,0.17-0.12,0.17c0,0-0.07,0.21-0.07,0.21C6.84,5.76,6.85,5.77,6.86,5.77c0.01,0.01,0.11,0.07,0.19,0.02
	c0.09-0.05,0.28-0.1,0.38-0.12C7.48,5.66,7.51,5.68,7.51,5.7C7.52,5.72,7.5,5.75,7.46,5.76L7.44,5.76C7.27,5.81,7.09,5.87,7.1,5.94
	l0.03,0.05C7.2,6.04,7.41,6.02,7.51,5.99l0.11-0.03c0.1-0.03,0.21-0.06,0.3-0.05c0.05,0.01,0.1,0.03,0.16,0.06
	C8.16,6,8.25,6.04,8.38,6.05C8.6,6.07,8.75,6.11,8.76,6.12c0.03,0.06,0.01,0.15,0,0.22L8.74,6.41C8.68,6.96,8.06,7.58,7.77,7.88
	C7.69,7.96,7.63,8.02,7.62,8.04L7.59,8.12C7.56,8.19,7.54,8.25,7.44,8.29C7.39,8.31,7.26,8.41,7.11,8.52
	C6.9,8.68,6.64,8.88,6.56,8.87C6.44,8.85,5.87,8.46,5.85,8.44C5.3,7.9,5.07,8.01,4.93,8.08L4.91,8.09C4.74,8.16,4.57,8.63,4.55,8.73
	L4.48,9.02L4.43,9.23C4.42,9.3,4.35,9.48,4.29,9.65l-0.13,0.37c-0.02,0.09-0.08,0.21-0.12,0.3l-0.06,0.14
	c-0.04,0.17-0.04,1.1,0.03,1.18l0,0l0.01,0c0.07-0.01,0.23-0.17,0.3-0.24l0.02-0.02c0.06-0.06,0.13-0.23,0.13-0.3
	c0-0.07-0.03-0.21-0.05-0.25c-0.1-0.31-0.06-0.6-0.04-0.74l0.01-0.06C4.39,9.97,4.45,9.9,4.52,9.83L4.6,9.74
	c0.04-0.06,0.09-0.08,0.14-0.09L4.8,9.6l0.01-0.01c0.05-0.05,0.13-0.13,0.16-0.23l0.07-0.29l0.01-0.08c0-0.02,0.01-0.02,0.02-0.03
	C5.11,8.95,5.15,8.97,5.17,9l0.49,0.57C5.78,9.67,5.91,9.8,5.91,9.83c0,0,0,0,0,0c0,0,0,0,0,0C5.84,9.84,5.5,9.76,5.44,9.75
	C4.97,9.61,4.76,9.63,4.59,9.84C4.4,10.08,4.46,10.8,4.5,10.88c0.04,0.07,0.21,0.95,0.21,1.07c0.01,0.12,0.05,0.32,0.1,0.37
	l0.01,0.01c0.06,0.06,0.21,0.21,0.24,0.36c0.03,0.16,0.38,0.6,0.51,0.64c0.02,0.01,0.04,0,0.06-0.01c0.1-0.07,0.15-0.42,0.15-0.57
	c0.01-0.18-0.06-0.27-0.13-0.37l-0.03-0.04c-0.05-0.07-0.14-0.1-0.2-0.11c-0.03-0.01-0.06-0.02-0.06-0.02c0,0-0.01-0.27-0.09-0.33
	c-0.07-0.04-0.14-0.3-0.14-0.4c-0.01-0.1-0.05-0.34-0.1-0.44c-0.05-0.11-0.1-0.3-0.07-0.45c0.01-0.06,0.06-0.08,0.09-0.09
	c0.06-0.01,0.14,0.02,0.15,0.04c0.03,0.05,0.52,0.35,0.69,0.41c0.1,0.04,0.24,0.16,0.37,0.26c0.09,0.07,0.16,0.14,0.21,0.16
	c0.06,0.03,0.24,0.03,0.39,0.04c0.08,0,0.16,0,0.17,0.01c-0.06,0.02-0.06,0.13-0.05,0.16c0.06,0.43,1.61,1.6,1.73,1.67
	c0.14,0.07,0.64,0.6,0.68,0.67c0.05,0.07,0.09,0.15,0.08,0.2c-0.01,0.09,0.02,0.19,0.09,0.27c0.07,0.08,0.15,0.12,0.23,0.12
	c0.07,0,0.12-0.06,0.15-0.11l0.01-0.01c0.09-0.12,0.23-0.3,0.25-0.58c0.02-0.29,0.15-0.4,0.19-0.41c0.02,0,0.03,0,0.04,0.01
	c0.01,0.01,0,0.04-0.03,0.05c-0.06,0.04-0.09,0.17-0.13,0.3c0,0-0.01,0.14-0.01,0.14c0,0.1-0.01,0.22-0.11,0.33
	c-0.15,0.17-0.33,0.55-0.38,1.04c-0.03,0.29,0.1,0.72,0.39,1.25l0.02,0.04l0.08,0.13c0.08,0.13,0.21,0.34,0.2,0.39
	c-0.01,0.07-0.01,0.12-0.13,0.27c-0.13,0.17-0.61,0.72-0.66,0.73c-0.1,0-0.11,0.01-0.19,0.07L9.4,18.22
	c-0.09,0.06-0.1,0.11-0.12,0.15c-0.01,0.03-0.02,0.06-0.06,0.09l-0.03,0.02c-0.01,0.01-0.02,0.03-0.22,0.22
	c-0.22,0.22-0.32,0.47-0.29,0.71c0.01,0.08,0.08,0.1,0.27,0.11c0.2,0.01,0.65-0.31,0.67-0.41l0.01-0.04
	c0.02-0.09,0.05-0.25,0.1-0.27c0.06-0.03,0.17-0.15,0.24-0.24l0.02-0.02c0.04-0.05,0.05-0.09,0.06-0.14
	c0.01-0.04,0.02-0.07,0.04-0.1c0.02-0.02,0.05-0.04,0.08-0.05c0.06-0.03,0.14-0.07,0.19-0.2c0.05-0.13,0.38-0.36,0.61-0.53
	c0.12-0.09,0.21-0.15,0.24-0.18c0.03-0.04,0.05-0.12,0.05-0.2c0-0.1-0.03-0.2-0.09-0.26c-0.09-0.08-0.17-0.33-0.2-0.41c0,0,0,0,0,0
	c0-0.03,0-0.09-0.01-0.2c0-0.01,0-0.01,0-0.01c0-0.29,0.43-0.57,0.61-0.69l0.08-0.06c0.67-0.59,0.8-1.04,0.83-1.17l0.01-0.15
	c0-0.1,0.01-0.2,0.07-0.21c0.02,0,0.06,0.01,0.09,0.04c0.01,0.02,0.03,0.05,0.02,0.09c-0.03,0.08-0.04,0.92-0.04,0.95
	c0,0.01,0.07,0.09,0.07,0.09l0.01,0.01l0-0.02c0-0.01,0.04-0.24,0.04-0.32c0-0.09,0.14-0.48,0.18-0.48c0,0,0,0,0,0
	c0.02,0.05,0.04,0.19,0.04,0.32c0,0.14-0.02,0.28-0.09,0.36c-0.1,0.12-0.18,0.32-0.23,0.45l-0.05,0.11c0,0.01-0.01,0.03-0.01,0.05
	c0,0.11,0.05,0.33,0.09,0.37c0.01,0.01,0.02,0.01,0.02,0.01c0.01,0,0.02-0.02,0.02-0.11c0-0.34,0.28-0.58,0.29-0.58
	c0.25-0.2,0.3-0.57,0.3-0.85c0-0.21-0.03-0.37-0.03-0.38c0,0-0.12-0.17-0.12-0.17c0.01,0,0.04-0.02,0.05-0.03
	c0.01,0.01,0.12,0.17,0.12,0.17c0.02,0.03,0.07,0.11,0.07,0.14c0,0.17,0.03,0.29,0.05,0.38l0,0.02c0.02,0.09,0.15,0.39,0.15,0.4
	l0.01,0.03l0-0.03c0,0,0.02-0.16,0-0.29c-0.01-0.07,0-0.17,0.02-0.26l0.02-0.23c0-0.18-0.03-0.3-0.09-0.4l-0.03-0.05
	c-0.01-0.02-0.03-0.04-0.02-0.04l0.02-0.01c0.53-0.18,0.77-0.57,0.87-0.78c0.11-0.23,0.11-0.58,0.11-0.65c0-0.09,0-0.54-0.08-0.78
	c-0.04-0.14-0.03-0.29-0.02-0.45l0.02-0.27c0-0.19,0.1-0.33,0.19-0.46l0.11-0.18C14.84,10.01,14.8,9.88,14.77,9.85L14.77,9.85z"/>
<path class="st1" d="M8.86,3.96c0.01,0,0.12-0.05,0.12-0.05c0-0.01-0.02-0.12-0.02-0.12c0,0-0.24-0.29-0.24-0.29L8.71,3.49l0,0.02
	L8.67,3.63c0,0-0.08,0.18-0.08,0.18l0,0.01L8.76,3.9C8.76,3.9,8.86,3.96,8.86,3.96L8.86,3.96z"/>
<path class="st0" d="M8.91,4.7c0.03,0.01,0.06,0.01,0.1-0.01c0.06-0.03,0.09-0.07,0.08-0.1L9.06,4.56C9.04,4.55,9,4.56,8.96,4.57
	C8.91,4.59,8.88,4.63,8.88,4.66c0,0.01,0,0.01,0,0.02L8.91,4.7L8.91,4.7z"/>
<path class="st0" d="M9.89,4.3l0.05,0.03c0.01,0.02,0.02,0.03,0.04,0.03c0.02,0,0.04,0,0.06-0.01c0.01-0.01,0.02-0.03,0.01-0.05
	c-0.01-0.04-0.05-0.08-0.1-0.08c-0.06,0-0.11,0.01-0.11,0.05C9.83,4.28,9.86,4.29,9.89,4.3L9.89,4.3z"/>
<path class="st0" d="M9.94,4.46C9.92,4.48,9.91,4.5,9.92,4.52l0,0.02c0.01,0.02,0.01,0.03,0.03,0.03l0.04,0.01
	c0.05,0.01,0.12-0.02,0.13-0.05c0.01-0.01,0.01-0.03-0.02-0.06C10.04,4.43,9.98,4.44,9.94,4.46L9.94,4.46z"/>
<path class="st0" d="M10.09,5.1c-0.01-0.01-0.01-0.03,0-0.06c0.01-0.02,0.02-0.05,0-0.06c-0.01-0.01-0.03-0.01-0.06,0
	C9.91,5.02,9.89,5.15,9.88,5.24l0,0.03C9.87,5.3,9.89,5.32,9.9,5.32c0.04,0.01,0.12-0.02,0.13-0.05c0.02-0.03,0.12-0.06,0.2-0.08
	l0.03-0.01c0.04-0.01,0.05-0.02,0.06-0.04c0-0.02-0.02-0.05-0.05-0.06c-0.02-0.01-0.05,0-0.09,0.01C10.15,5.1,10.11,5.11,10.09,5.1
	L10.09,5.1z"/>
<path class="st0" d="M8.81,5.14c0.03,0,0.05-0.01,0.06-0.03c0.04-0.06,0.04-0.14,0-0.21c-0.04-0.07-0.1-0.12-0.16-0.12l0,0l-0.01,0
	L8.58,4.79C8.52,4.8,8.47,4.85,8.45,4.89c-0.01,0.02,0,0.04,0.01,0.06C8.56,5.05,8.72,5.15,8.81,5.14L8.81,5.14z"/>
<path class="st0" d="M7.66,5.05c0.01,0.03,0.08,0.04,0.17,0.01l0.02-0.01l0.17-0.07l0.24-0.16c0.01-0.01,0.07-0.05,0.06-0.08
	C8.32,4.72,8.28,4.73,8.26,4.73c-0.07,0.01-0.13,0.04-0.2,0.08l-0.1,0.05L7.92,4.87C7.77,4.94,7.64,4.99,7.66,5.05L7.66,5.05z"/>
<path class="st0" d="M7.15,5.23c-0.05,0-0.07,0.03-0.09,0.05L7.04,5.3C7,5.34,6.99,5.42,6.99,5.48c0,0.03,0.01,0.07,0.03,0.09
	C7.08,5.6,7.1,5.58,7.15,5.53c0,0,0.04-0.03,0.04-0.03c0.05-0.04,0.1-0.09,0.11-0.16c0-0.03,0-0.05-0.02-0.07
	C7.25,5.23,7.19,5.23,7.15,5.23L7.15,5.23z"/>
<path class="st0" d="M7.43,5.25c-0.01,0-0.02,0-0.03,0.01C7.39,5.27,7.4,5.3,7.4,5.32l0,0.02l0,0.01c0,0.01-0.01,0.02,0,0.03
	C7.41,5.39,7.42,5.4,7.45,5.4c0.03,0,0.04,0,0.05-0.03L7.5,5.34c0.01-0.02,0.01-0.04,0-0.05C7.49,5.26,7.46,5.25,7.43,5.25
	L7.43,5.25z"/>
<path class="st0" d="M7.7,5.69c0.04,0,0.07-0.03,0.07-0.07c0-0.04-0.03-0.07-0.07-0.07c-0.04,0-0.07,0.03-0.07,0.07
	C7.64,5.66,7.67,5.69,7.7,5.69L7.7,5.69z"/>
<path class="st0" d="M8.92,5.52c-0.02,0-0.04,0-0.05,0.02C8.85,5.56,8.74,5.64,8.66,5.7l-0.1,0.07L8.55,5.78
	C8.54,5.79,8.53,5.8,8.54,5.82c0,0,0.01,0.02,0.01,0.02l0.03-0.01l0.04-0.02l0.06-0.01C8.74,5.8,8.8,5.79,8.83,5.76L8.87,5.7
	l0.06-0.09c0.03-0.03,0.03-0.05,0.03-0.06C8.95,5.54,8.94,5.53,8.92,5.52L8.92,5.52z"/>
<path class="st0" d="M9.04,5.9c0,0.03,0.02,0.05,0.03,0.05c0.03,0.01,0.06,0,0.08-0.03l0.07-0.06c0.04-0.03,0.09-0.06,0.13-0.11
	c0.04-0.05,0.02-0.08,0.01-0.09c-0.03-0.02-0.08-0.03-0.1-0.02L9.25,5.65C9.2,5.68,9.08,5.76,9.05,5.85
	C9.05,5.87,9.04,5.88,9.04,5.9L9.04,5.9z"/>
<path class="st0" d="M9.53,5.86C9.51,5.84,9.49,5.83,9.47,5.84L9.42,5.88C9.38,5.91,9.33,5.95,9.29,5.96
	C9.2,5.98,9.06,6.03,9.06,6.09c0,0,0,0.01,0,0.01c0,0.02,0.01,0.03,0.02,0.04C9.11,6.17,9.2,6.15,9.26,6.13
	c0.1-0.04,0.16-0.08,0.24-0.15C9.55,5.93,9.55,5.89,9.53,5.86L9.53,5.86z"/>
<path class="st0" d="M9.15,6.63l-0.03,0C9.04,6.64,8.9,6.89,8.8,7.06L8.78,7.09L8.49,7.65L8.4,7.82C8.39,7.84,8.39,7.86,8.41,7.88
	c0.01,0.01,0.04,0.02,0.07,0C8.53,7.85,8.7,7.67,8.79,7.53L8.9,7.38c0.07-0.09,0.15-0.2,0.2-0.32l0.02-0.04
	C9.22,6.73,9.24,6.68,9.15,6.63L9.15,6.63z"/>
<path class="st0" d="M10.25,5.57c-0.04,0-0.06,0.03-0.06,0.06c0,0.03,0.03,0.06,0.06,0.06c0.04,0,0.06-0.03,0.06-0.06
	C10.32,5.6,10.29,5.57,10.25,5.57L10.25,5.57z"/>
<path class="st0" d="M10.22,5.83c0,0.03,0.03,0.06,0.06,0.06c0.04,0,0.06-0.03,0.06-0.06c0-0.03-0.03-0.06-0.06-0.06
	C10.25,5.77,10.22,5.79,10.22,5.83L10.22,5.83z"/>
<path class="st0" d="M10.28,5.97c-0.04,0-0.07,0.03-0.07,0.06c0,0.03,0.03,0.06,0.07,0.06c0.04,0,0.07-0.03,0.07-0.06
	C10.36,5.99,10.33,5.97,10.28,5.97L10.28,5.97z"/>
<path class="st0" d="M10.28,6.14c-0.05,0-0.08,0.03-0.08,0.07c0,0.04,0.04,0.07,0.08,0.07c0.05,0,0.08-0.03,0.08-0.07
	C10.36,6.17,10.33,6.14,10.28,6.14L10.28,6.14z"/>
<path class="st0" d="M10.28,6.36c-0.05,0-0.09,0.03-0.09,0.07c0,0.04,0.04,0.07,0.09,0.07c0.05,0,0.09-0.03,0.09-0.07
	C10.38,6.39,10.34,6.36,10.28,6.36L10.28,6.36z"/>
<path class="st0" d="M10.25,6.72c0.06-0.01,0.1-0.04,0.1-0.07l-0.02-0.03c-0.02-0.02-0.05-0.03-0.09-0.02
	c-0.06,0.01-0.1,0.04-0.1,0.07c0,0,0,0,0,0l0.02,0.03C10.18,6.72,10.22,6.73,10.25,6.72L10.25,6.72z"/>
<polygon class="st0" points="10.12,6.91 10.12,6.9 10.12,6.91 "/>
<path class="st0" d="M10.25,6.95c0.07-0.01,0.11-0.05,0.11-0.08l-0.02-0.03c-0.02-0.02-0.06-0.02-0.11-0.02
	c-0.06,0.01-0.11,0.05-0.11,0.08l0.02,0.03C10.17,6.95,10.21,6.96,10.25,6.95L10.25,6.95z"/>
<path class="st0" d="M10.14,7.06c0,0.04,0.05,0.07,0.11,0.07c0.06,0,0.11-0.03,0.11-0.07c0-0.04-0.05-0.07-0.11-0.07
	C10.19,6.99,10.14,7.02,10.14,7.06L10.14,7.06z"/>
<path class="st0" d="M10.34,7.3c0-0.04-0.06-0.08-0.13-0.08c-0.07,0-0.13,0.03-0.13,0.08c0,0.04,0.06,0.08,0.13,0.08
	C10.28,7.38,10.34,7.34,10.34,7.3L10.34,7.3z"/>
<path class="st0" d="M10.25,7.5c0-0.04-0.04-0.08-0.1-0.08c-0.05,0-0.1,0.03-0.1,0.08c0,0.04,0.04,0.08,0.1,0.08
	C10.21,7.57,10.25,7.54,10.25,7.5L10.25,7.5z"/>
<path class="st0" d="M10.21,7.75c0-0.05-0.05-0.09-0.1-0.09c-0.06,0-0.1,0.04-0.1,0.09c0,0.05,0.05,0.09,0.1,0.09
	C10.16,7.83,10.21,7.79,10.21,7.75L10.21,7.75z"/>
<path class="st0" d="M10.12,7.99c0-0.04-0.04-0.08-0.08-0.08c-0.05,0-0.08,0.03-0.08,0.08c0,0.04,0.04,0.08,0.08,0.08
	C10.09,8.06,10.12,8.03,10.12,7.99L10.12,7.99z"/>
<path class="st0" d="M9.98,8.13c-0.04,0-0.08,0.03-0.08,0.08c0,0.04,0.04,0.08,0.08,0.08c0.04,0,0.08-0.03,0.08-0.08
	C10.06,8.17,10.02,8.13,9.98,8.13L9.98,8.13z"/>
<path class="st0" d="M9.91,8.5C9.96,8.5,10,8.47,10,8.43c0-0.04-0.04-0.07-0.08-0.07c-0.05,0-0.08,0.03-0.08,0.07
	C9.83,8.47,9.87,8.5,9.91,8.5L9.91,8.5z"/>
<path class="st0" d="M9.83,8.65c0.04,0,0.08-0.02,0.08-0.06c0-0.03-0.03-0.06-0.08-0.06c-0.04,0-0.08,0.02-0.08,0.06
	C9.76,8.63,9.79,8.65,9.83,8.65L9.83,8.65z"/>
<path class="st0" d="M9.76,8.81c0.04,0,0.07-0.02,0.07-0.06c0-0.03-0.03-0.06-0.07-0.06c-0.04,0-0.07,0.02-0.07,0.06
	C9.68,8.78,9.72,8.81,9.76,8.81L9.76,8.81z"/>
<path class="st0" d="M7.57,8.67l0.01,0l0.1-0.02C7.77,8.64,7.91,8.61,8.07,8.6c0.12,0,0.25,0.04,0.35,0.07
	C8.51,8.7,8.55,8.71,8.57,8.7c0.01-0.01,0-0.03,0-0.04C8.54,8.6,8.43,8.41,8.05,8.4C7.81,8.4,7.61,8.56,7.57,8.63
	C7.56,8.65,7.56,8.66,7.57,8.67L7.57,8.67L7.57,8.67z"/>
<path class="st0" d="M8.96,9.38c0.02-0.02,0.03-0.04,0.03-0.08C8.98,9.14,8.94,9.13,8.86,9.13c-0.08,0-0.15,0.08-0.15,0.13
	c0,0.04,0.03,0.08,0.09,0.11C8.83,9.38,8.91,9.4,8.96,9.38L8.96,9.38z"/>
<path class="st0" d="M10.1,11.23c0.12,0.06,0.16,0.08,0.18,0.08c0,0,0,0,0,0s0,0,0,0c0.01,0,0.01,0,0.01,0c0,0-0.01-0.01-0.01-0.01
	c0,0,0,0,0,0s-0.01,0-0.01,0c-0.08-0.1-0.56-0.78-0.66-1.23C9.61,9.98,9.59,9.91,9.54,9.88c-0.03-0.02-0.06-0.02-0.1,0h0
	c-0.01,0-0.02,0.01-0.02,0.02c0,0.01-0.01,0.02-0.01,0.04c0,0.16,0.17,0.6,0.23,0.69C9.95,11.14,10.1,11.22,10.1,11.23L10.1,11.23z"
	/>
<path class="st0" d="M14.03,11.42l-0.02,0c0,0,0,0.14,0,0.31c0,0.25-0.01,0.59-0.05,0.74c-0.04,0.12-0.2,0.36-0.33,0.54
	c0,0-0.15,0.23-0.15,0.23c0,0.01-0.01,0.02-0.01,0.03c0,0.02,0.01,0.04,0.03,0.06c0.02,0.01,0.07,0.04,0.15-0.05l0.1-0.1
	c0.13-0.13,0.29-0.29,0.4-0.64C14.28,12.13,14.03,11.43,14.03,11.42L14.03,11.42z"/>
<path class="st0" d="M9.99,12.69c0.01,0.01,0.03,0.01,0.05,0.01c0.03-0.01,0.05-0.03,0.06-0.07c0-0.05,0.04-0.11,0.09-0.17
	c0.05-0.05,0.06-0.15-0.01-0.21l-0.06-0.03c-0.04,0-0.07,0.03-0.07,0.04c0,0-0.06,0.31-0.06,0.31v0
	C9.96,12.58,9.96,12.66,9.99,12.69L9.99,12.69z"/>
<path class="st0" d="M12.08,13.83L12.08,13.83L12.08,13.83c-0.01,0-0.06,0.03-0.08,0.08c-0.01,0.04,0.01,0.07,0.02,0.09l0.02,0.03
	l0.01,0.07l0.01,0.1c0.01,0.02,0.03,0.04,0.05,0.03c0.03,0,0.05-0.02,0.06-0.06c0.01-0.05,0.02-0.13,0.02-0.22
	C12.2,13.87,12.09,13.83,12.08,13.83L12.08,13.83z"/>
<path class="st0" d="M8.83,13.02c-0.01-0.01-0.78-0.84-0.94-1.06c-0.17-0.22-0.25-0.24-0.33-0.19c-0.01,0.01-0.02,0.02-0.02,0.03
	c-0.01,0.09,0.18,0.31,0.35,0.47c0.23,0.23,0.93,0.76,0.94,0.76L8.83,13.02L8.83,13.02z"/>
<path class="st0" d="M5.82,10.56c-0.16-0.1-0.43-0.15-0.43-0.15l-0.01,0.02l0.3,0.23c0.05,0.04,0.27,0.18,0.34,0.12
	c0.01-0.01,0.01-0.02,0.01-0.03C6.03,10.7,5.96,10.65,5.82,10.56L5.82,10.56z"/>
<path class="st0" d="M5.75,9.29l0.02-0.01c0.03-0.03-0.03-0.12-0.11-0.19c-0.07-0.06-0.14-0.1-0.17-0.1L5.46,9
	c0,0.01-0.01,0.01-0.01,0.02c0,0.04,0.05,0.11,0.12,0.17C5.64,9.25,5.71,9.29,5.75,9.29L5.75,9.29z"/>
<path class="st0" d="M6.54,9.18l-0.03,0C6.45,9.2,6.36,9.35,6.29,9.54C6.24,9.67,6.2,9.81,6.2,9.9c0,0.04,0.01,0.07,0.03,0.08
	l0.03,0C6.32,9.95,6.41,9.8,6.48,9.62c0.05-0.13,0.09-0.28,0.09-0.36C6.57,9.21,6.56,9.19,6.54,9.18L6.54,9.18z"/>
<path class="st0" d="M5.11,8.27c-0.07,0-0.13,0.04-0.13,0.08c0,0.04,0.06,0.08,0.13,0.08c0.08,0,0.14-0.04,0.14-0.08
	C5.24,8.3,5.18,8.27,5.11,8.27L5.11,8.27z"/>
<path class="st0" d="M4.63,9.26l0.02,0c0.04-0.02,0.1-0.13,0.15-0.27c0.05-0.15,0.08-0.3,0.03-0.32l-0.02,0
	C4.76,8.7,4.7,8.81,4.66,8.94C4.61,9.09,4.58,9.25,4.63,9.26L4.63,9.26z"/>
<path class="st0" d="M4.75,10.02C4.79,9.97,4.8,9.91,4.77,9.88L4.74,9.88c-0.03,0-0.06,0.03-0.09,0.06
	c-0.04,0.05-0.05,0.11-0.02,0.14l0.03,0.01C4.69,10.08,4.73,10.06,4.75,10.02L4.75,10.02z"/>
<path class="st0" d="M4.71,10.85L4.71,10.85l-0.02,0c-0.05,0.01-0.02,0.25,0.01,0.37c0.04,0.17,0.09,0.31,0.13,0.33l0,0l0.01,0
	c0.05-0.01,0.02-0.25-0.01-0.37C4.8,11.01,4.74,10.87,4.71,10.85L4.71,10.85z"/>
<path class="st0" d="M4.17,11.16c-0.04,0-0.08,0.03-0.08,0.07c0,0.04,0.03,0.07,0.08,0.07c0.04,0,0.08-0.03,0.08-0.07
	C4.24,11.2,4.21,11.16,4.17,11.16L4.17,11.16z"/>
<path class="st0" d="M5.5,12.86c-0.05,0-0.09,0.04-0.09,0.09c0,0.05,0.04,0.09,0.09,0.09c0.05,0,0.09-0.04,0.09-0.09
	C5.59,12.9,5.55,12.86,5.5,12.86L5.5,12.86z"/>
<path class="st0" d="M10,15.23c0,0,0.01,0.02,0.02,0.02l0.01,0l0.01-0.01l0.08-0.25l0.06-0.17l0.05-0.13c0.02-0.04,0.02-0.07,0-0.09
	c-0.03-0.02-0.08,0-0.09,0c0,0-0.16,0.26-0.16,0.26c-0.03,0.05-0.04,0.11-0.04,0.17C9.95,15.11,9.98,15.2,10,15.23L10,15.23z"/>
<path class="st0" d="M10.37,16.49l0-0.03c0-0.01,0.05-0.36-0.06-0.5c-0.02-0.03-0.06-0.05-0.09-0.05c-0.03,0-0.05,0.01-0.07,0.03
	c-0.07,0.11,0.19,0.51,0.2,0.53L10.37,16.49L10.37,16.49z"/>
<path class="st0" d="M10.97,17.15c-0.05,0-0.09,0.04-0.09,0.09c0,0.05,0.04,0.09,0.09,0.09c0.05,0,0.09-0.04,0.09-0.09
	C11.07,17.19,11.03,17.15,10.97,17.15L10.97,17.15z"/>
<path class="st0" d="M9.56,16.03c-0.04,0-0.08,0.03-0.08,0.08c0,0.04,0.04,0.08,0.08,0.08c0.05,0,0.08-0.03,0.08-0.08
	C9.64,16.06,9.6,16.03,9.56,16.03L9.56,16.03z"/>
<path class="st0" d="M10.59,17.39L10.59,17.39c-0.06,0-0.24,0.16-0.4,0.32c-0.01,0.01-0.36,0.37-0.31,0.41l0,0l0.01,0
	c0.05,0,0.23-0.16,0.39-0.32C10.3,17.79,10.64,17.44,10.59,17.39L10.59,17.39L10.59,17.39z"/>
<path class="st0" d="M9.56,18.34c-0.03,0-0.07,0.03-0.11,0.07c-0.05,0.05-0.08,0.11-0.06,0.14l0,0l0,0l0.03,0.01
	c0.03,0,0.07-0.03,0.11-0.07c0.05-0.05,0.08-0.11,0.06-0.14L9.56,18.34L9.56,18.34z"/>
<path class="st0" d="M9.11,18.99c-0.04,0-0.08,0.03-0.13,0.07c-0.05,0.05-0.07,0.1-0.07,0.13c0,0.01,0,0.02,0.01,0.03l0.03,0.01
	c0.03,0,0.09-0.03,0.13-0.07C9.14,19.1,9.17,19.03,9.14,19L9.11,18.99L9.11,18.99z"/>
<path class="st0" d="M6.75,15.71c-0.07,0-0.12,0.04-0.12,0.09c0,0.05,0.06,0.09,0.12,0.09c0.07,0,0.12-0.04,0.12-0.09
	C6.87,15.75,6.82,15.71,6.75,15.71L6.75,15.71z"/>
<path class="st0" d="M7.75,15.78c-0.05,0-0.09,0.03-0.09,0.06c0,0.03,0.04,0.06,0.09,0.06c0.05,0,0.08-0.03,0.08-0.06
	C7.83,15.81,7.79,15.78,7.75,15.78L7.75,15.78z"/>
<path class="st0" d="M8.97,16.19l0.01-0.01C8.99,16.12,8.7,16.03,8.55,16c-0.18-0.05-0.4-0.09-0.45-0.06l0,0l-0.01,0.01
	c-0.01,0.06,0.27,0.15,0.43,0.19C8.7,16.19,8.92,16.22,8.97,16.19L8.97,16.19L8.97,16.19z"/>
</svg>
