<?xml version="1.0" encoding="utf-8"?>
<!-- Generator: Adobe Illustrator 25.3.0, SVG Export Plug-In . SVG Version: 6.00 Build 0)  -->
<svg version="1.1" id="Layer_1" xmlns="http://www.w3.org/2000/svg" xmlns:xlink="http://www.w3.org/1999/xlink" x="0px" y="0px"
	 viewBox="0 0 55.91 25" style="enable-background:new 0 0 55.91 25;" xml:space="preserve">
<g>
	<path d="M31.28,3.12c-0.03,0.07-0.28,0.66-0.3,0.71h0.61L31.28,3.12z"/>
	<path d="M55.81,0.36C55.61,0.03,55.25,0,55.11,0h-22.6c-0.64,0-1.15,0.19-1.55,0.58c-0.27,0.27-0.46,0.63-0.56,1.06
		c0,0.01-0.03,0.1-0.22,0.1h-4.47c-0.19,0-0.22-0.09-0.22-0.1c-0.1-0.43-0.29-0.79-0.56-1.06C24.55,0.19,24.03,0,23.39,0H0.79
		c-0.14,0.01-0.5,0.03-0.7,0.36C0,0.52-0.07,0.78,0.13,1.16l0.41,0.69c0.17,0.27,0.36,0.37,0.77,0.4c0.01,0,0.2,0.02,0.33,0.25
		l0.42,0.75c0.09,0.16,0.29,0.56,1.01,0.66c0.02,0,0.22,0.02,0.36,0.23c0,0.01,0.52,0.92,0.52,0.92C4.1,5.35,4.31,5.46,4.7,5.58
		l9.45,2.78c0.32,0.1,0.45,0.46,0.45,0.46c0.22,0.58,0.51,1.06,1.99,1.51l7.73,2.11c0.1,0.03,0.98,0.3,1.65-0.34l1.81-1.73
		c0,0,0.08-0.08,0.18-0.08c0.1,0,0.17,0.07,0.19,0.08l1.81,1.73c0.67,0.64,1.56,0.37,1.65,0.34l7.73-2.11
		c1.47-0.45,1.76-0.93,1.99-1.51c0,0,0.13-0.37,0.45-0.46l9.45-2.78c0.39-0.12,0.6-0.23,0.75-0.52l0.52-0.92
		c0.12-0.22,0.33-0.24,0.34-0.24c0.71-0.09,0.92-0.49,1.01-0.66l0.42-0.74c0.14-0.23,0.32-0.25,0.33-0.25
		c0.4-0.02,0.6-0.13,0.76-0.4l0.41-0.69C55.97,0.79,55.9,0.52,55.81,0.36z M30.82,1.73c0.08-0.35,0.23-0.64,0.45-0.85
		c0.3-0.3,0.72-0.45,1.24-0.45H42.9c-0.36,0.27-0.54,0.6-0.56,0.63c-0.14,0.27-0.29,0.53-0.45,0.78h-11.1
		C30.81,1.79,30.82,1.73,30.82,1.73z M39.48,4.22V3.71l1,0.13c-0.13,0.17-0.27,0.33-0.42,0.5C39.8,4.29,39.6,4.25,39.48,4.22z
		 M39.81,4.63c-0.11,0.12-0.22,0.23-0.33,0.35V4.56L39.81,4.63z M39.48,3.38V2.93l1.61,0.11c-0.12,0.17-0.25,0.33-0.38,0.51
		L39.48,3.38z M39.48,2.59V2.16h2.21c-0.12,0.19-0.24,0.37-0.37,0.55L39.48,2.59z M34.08,4.81h-0.4l-0.2-0.27l-0.36-0.46
		c-0.07-0.1-0.15-0.19-0.23-0.28H32.8v1.01h-0.3v-2.1h0.66c0.47,0,0.69,0.16,0.69,0.48c0,0.29-0.22,0.5-0.6,0.58
		C33.28,3.81,34.08,4.8,34.08,4.81z M35.61,2.93h-0.02c-0.19-0.03-0.4-0.04-0.61-0.04v1.92h-0.3V2.89c-0.21,0-0.43,0.02-0.64,0.04
		h-0.02V2.71h1.58L35.61,2.93z M32.76,5.63l3.08,2.21c-0.45,0.26-0.91,0.49-1.38,0.7c-1.02-1.06-2.24-2.33-2.79-2.91H32.76z
		 M33.32,5.63h2.03l2.23,1.05c-0.46,0.35-0.94,0.68-1.43,0.98C35.07,6.89,33.93,6.07,33.32,5.63z M36.11,5.63h2.69
		c-0.27,0.27-0.92,0.8-0.94,0.82C37.21,6.15,36.57,5.85,36.11,5.63z M35.86,4.8V2.7h0.29v2.1H35.86z M36.6,4.81v-2.1h0.14
		c0,0,1.42,1.54,1.43,1.55V2.71l0.22-0.01v2.1h-0.12l-0.16-0.19c0,0-1.29-1.42-1.3-1.43v1.63H36.6z M31.31,2.66h0.09l0.92,2.14
		h-0.36V4.79c-0.09-0.27-0.2-0.54-0.31-0.8h-0.74c-0.01,0.02-0.02,0.05-0.02,0.05c-0.1,0.24-0.2,0.49-0.28,0.75V4.8h-0.26
		L31.31,2.66z M31.21,5.63l2.92,3.04c-0.55,0.23-1.12,0.43-1.7,0.59l-2.14-3.63H31.21z M32.11,9.35c-0.61,0.16-1.22,0.28-1.85,0.36
		l-1.13-4.08h0.78L32.11,9.35z M18.48,3.99h-0.74l-0.02,0.05c-0.09,0.24-0.19,0.49-0.27,0.75V4.8h-0.26l0.96-2.14h0.09l0.91,2.14
		h-0.36V4.79C18.7,4.52,18.59,4.25,18.48,3.99z M19.79,5.63l-1.75,0.82c-0.02-0.02-0.67-0.56-0.94-0.82H19.79z M19.85,3.83
		c-0.24-0.09-0.52-0.2-0.52-0.57s0.27-0.6,0.69-0.6c0.13,0,0.32,0.04,0.44,0.15l0.01,0.01l-0.09,0.27h-0.06V3.08
		c-0.07-0.16-0.19-0.25-0.36-0.25c-0.21,0-0.36,0.14-0.36,0.33c0,0.26,0.21,0.34,0.43,0.42c0.25,0.1,0.51,0.21,0.51,0.55
		c0,0.42-0.31,0.71-0.76,0.71c-0.13,0-0.39-0.06-0.51-0.19l0.07-0.29h0.06l0.01,0.01c0.13,0.21,0.27,0.3,0.47,0.3
		c0.22,0,0.4-0.18,0.4-0.42C20.28,4,20.07,3.91,19.85,3.83z M20.57,5.63h2.02l-2.83,2.02c-0.49-0.3-0.97-0.63-1.43-0.98
		C19.39,6.18,20.38,5.72,20.57,5.63z M22.26,2.93h-0.02c-0.19-0.03-0.4-0.04-0.61-0.04v1.92h-0.3V2.89c-0.21,0-0.43,0.02-0.64,0.04
		h-0.02V2.71h1.57c0,0,0.01,0,0.02,0V2.93z M23.32,2.66c0.58,0,1.16,0.33,1.16,1.04c0,0.68-0.47,1.13-1.17,1.13
		c-0.68,0-1.13-0.43-1.13-1.08C22.18,3.11,22.65,2.66,23.32,2.66z M23.15,5.63h1.09l-2.78,2.9c-0.47-0.21-0.93-0.44-1.38-0.7
		C21.41,6.88,22.8,5.88,23.15,5.63z M24.69,5.63h0.92l-2.14,3.63c-0.58-0.16-1.14-0.36-1.7-0.59C22.95,7.46,24.35,5.99,24.69,5.63z
		 M26,5.63h0.78l-1.13,4.08c-0.62-0.08-1.24-0.2-1.85-0.36C24.62,7.96,25.72,6.1,26,5.63z M26.39,4.26V2.71h0.19l0.03-0.01v2.1
		h-0.12l-0.16-0.19c0,0-1.29-1.42-1.3-1.43v1.63h-0.21v-2.1h0.14C24.96,2.71,26.38,4.25,26.39,4.26z M23.4,0.42
		c0.52,0,0.94,0.15,1.24,0.45c0.22,0.22,0.37,0.5,0.45,0.85c0,0,0.02,0.06,0.04,0.1h-11.1c-0.17-0.28-0.45-0.78-0.45-0.78
		c-0.01-0.02-0.2-0.36-0.56-0.63C13.01,0.42,23.4,0.42,23.4,0.42z M15.86,4.35c-0.14-0.16-0.28-0.33-0.42-0.5l0.99-0.14v0.52
		L15.86,4.35z M16.43,4.56v0.41c-0.11-0.11-0.22-0.23-0.32-0.35C16.24,4.6,16.34,4.57,16.43,4.56z M15.2,3.54
		c-0.13-0.17-0.25-0.34-0.38-0.51l1.61-0.1v0.45L15.2,3.54z M14.59,2.71c-0.13-0.18-0.25-0.37-0.37-0.55h2.2v0.43h0.01L14.59,2.71z
		 M1.34,1.83C1.06,1.81,1,1.78,0.9,1.63c0,0-0.37-0.62-0.4-0.67C0.44,0.84,0.42,0.76,0.42,0.7c0.01-0.15,0.11-0.27,0.39-0.28h11.27
		c0.76,0,1.21,0.78,1.21,0.78c0.11,0.21,0.23,0.42,0.36,0.63H1.34z M2.87,3.43c-0.29-0.1-0.38-0.27-0.44-0.38
		c-0.17-0.3-0.4-0.75-0.52-0.89h11.92c0.12,0.19,0.25,0.39,0.37,0.58L3.75,3.43C3.59,3.45,3.11,3.49,2.87,3.43z M4.28,4.84
		l-0.5-0.88C3.75,3.89,3.71,3.83,3.66,3.78c0.06-0.01,10.77-0.72,10.77-0.72c0.13,0.18,0.26,0.36,0.39,0.53L4.8,4.94
		C4.42,4.99,4.3,4.87,4.28,4.84z M7.23,5.9C6.49,5.68,5.74,5.46,4.99,5.24l10.07-1.35c0.14,0.17,0.28,0.35,0.43,0.53L8.6,5.83
		C8.35,5.89,7.61,6,7.23,5.9z M10.65,6.9C9.87,6.67,9.08,6.44,8.3,6.21C8.43,6.2,8.55,6.18,8.67,6.15c0,0,4.99-1.03,7.07-1.45
		c0.21,0.24,0.43,0.47,0.65,0.69l-4.62,1.42C11.76,6.82,11.13,7.03,10.65,6.9z M14.25,7.96c-0.1-0.03-1.19-0.35-2.61-0.77
		c0.08-0.02,0.16-0.04,0.23-0.06c0,0,3.87-1.19,4.78-1.47c0.34,0.33,0.7,0.65,1.07,0.95l-2.5,1.17C15.05,7.86,14.57,8.05,14.25,7.96
		z M16.25,9.77c-0.98-0.37-1.12-0.74-1.26-1.09c-0.06-0.15-0.14-0.28-0.24-0.4c0.22-0.04,0.42-0.11,0.62-0.21
		c0,0,1.32-0.62,2.64-1.23c0.47,0.37,0.96,0.71,1.47,1.03l-2.33,1.67C17.13,9.54,16.65,9.9,16.25,9.77z M16.98,10
		c0.13-0.05,0.25-0.12,0.36-0.2c0,0,1.16-0.83,2.44-1.75c0.46,0.27,0.94,0.52,1.43,0.74l-1.36,1.42c-0.12,0.12-0.49,0.43-0.8,0.36
		L16.98,10z M21.91,11.35l-2.23-0.61c0.23-0.13,0.39-0.3,0.4-0.31c0,0,0.64-0.66,1.44-1.5c0.58,0.25,1.16,0.46,1.77,0.63l-0.74,1.25
		C22.47,10.96,22.17,11.39,21.91,11.35z M24.81,11.96c-0.13,0.08-0.27,0.09-0.45,0.05l-1.95-0.53c0.24-0.19,0.4-0.47,0.43-0.52
		c0,0,0.33-0.56,0.78-1.32c0.64,0.17,1.28,0.3,1.93,0.39l-0.37,1.36C25.18,11.39,25.09,11.79,24.81,11.96z M25.67,11.79
		c-0.13,0.13-0.3,0.22-0.48,0.27c0.22-0.24,0.29-0.55,0.3-0.6l0.39-1.39c0.48,0.06,0.97,0.09,1.47,0.11
		C26.96,10.57,25.67,11.79,25.67,11.79z M27.79,9.87c-0.62-0.01-1.22-0.05-1.82-0.11l1.14-4.12h0.68V9.87z M28.05,4.81H27.8V4.79
		c0.08-0.49,0.26-1.75,0.29-2.06V2.71h0.11v0.01c0.24,0.48,0.53,1.03,0.84,1.55c0.03-0.05,0.35-0.64,0.35-0.64l0.51-0.92h0.07
		l0.02,0.01v0.02c0.09,0.88,0.17,1.55,0.24,2.06v0.02h-0.32V4.8c-0.04-0.42-0.1-1.14-0.15-1.5C29.42,3.91,29.18,4.37,29,4.77v0.01
		h-0.06l-0.17-0.35c-0.15-0.31-0.54-1.06-0.58-1.13l-0.03,0.29c-0.06,0.46-0.11,0.9-0.11,1.2V4.81z M28.12,9.87V5.63h0.68l1.14,4.12
		C29.34,9.82,28.74,9.86,28.12,9.87z M29.96,11.52c0,0-1.05-1-1.4-1.34c0.5-0.02,0.99-0.05,1.47-0.11l0.39,1.39
		c0.01,0.05,0.09,0.35,0.3,0.6C30.42,11.98,30.33,11.89,29.96,11.52z M31.54,12.02c-0.17,0.04-0.32,0.02-0.45-0.05
		c-0.27-0.17-0.36-0.55-0.37-0.57l-0.38-1.36c0.65-0.09,1.3-0.22,1.93-0.39l0.78,1.32c0.03,0.05,0.19,0.32,0.42,0.52L31.54,12.02z
		 M34,11.35c-0.26,0.04-0.56-0.38-0.65-0.54l-0.74-1.25c0.6-0.17,1.19-0.38,1.77-0.63l1.44,1.5c0.01,0.01,0.17,0.18,0.4,0.31
		L34,11.35z M37.23,10.47l-0.37,0.1c-0.31,0.07-0.69-0.23-0.81-0.36c0,0-0.59-0.62-1.36-1.42c0.49-0.22,0.97-0.47,1.43-0.74
		l2.45,1.75c0.01,0.01,0.15,0.11,0.36,0.2C38.39,10.15,37.23,10.47,37.23,10.47z M40.93,8.68c-0.14,0.36-0.28,0.72-1.27,1.09
		c-0.4,0.13-0.89-0.23-0.89-0.24c0,0-1.09-0.78-2.34-1.67c0.51-0.32,1-0.66,1.48-1.03l2.64,1.24c0.01,0.01,0.29,0.14,0.62,0.21
		C41.01,8.46,40.94,8.64,40.93,8.68z M41.66,7.96c-0.33,0.09-0.81-0.1-0.97-0.18c0,0-1.23-0.58-2.5-1.17
		c0.37-0.3,0.72-0.62,1.07-0.95l4.78,1.48c0.01,0,0.1,0.03,0.23,0.06L41.66,7.96z M45.27,6.9c-0.48,0.13-1.12-0.08-1.12-0.08h-0.01
		L39.53,5.4c0.22-0.23,0.44-0.46,0.65-0.69l7.07,1.45c0.02,0,0.16,0.03,0.36,0.06L45.27,6.9z M48.68,5.9
		C48.3,6,47.56,5.89,47.31,5.83l-6.89-1.42c0.15-0.18,0.3-0.35,0.43-0.53l10.07,1.35L48.68,5.9z M52.13,3.95c0,0-0.41,0.73-0.5,0.88
		c-0.02,0.03-0.14,0.16-0.52,0.11L41.08,3.59c0.14-0.18,0.27-0.36,0.39-0.53l10.65,0.71c0.02,0,0.06,0.01,0.12,0.01
		C52.2,3.83,52.16,3.89,52.13,3.95z M53.91,2.29l-0.43,0.75c-0.06,0.11-0.15,0.28-0.44,0.38c-0.24,0.06-0.72,0.02-0.88,0L41.7,2.74
		c0.14-0.2,0.26-0.39,0.37-0.58H54C53.96,2.2,53.93,2.24,53.91,2.29z M55.41,0.96L55,1.63c-0.08,0.13-0.12,0.18-0.43,0.2h-12.3
		c0.12-0.21,0.24-0.42,0.35-0.63c0-0.01,0.44-0.78,1.21-0.78H55.1c0.12,0,0.27,0.02,0.35,0.15c0.01,0.02,0.03,0.06,0.03,0.12
		C55.49,0.76,55.47,0.84,55.41,0.96z"/>
	<path d="M23.32,4.71c0.23,0,0.41-0.08,0.56-0.24c0.19-0.21,0.27-0.49,0.26-0.69c0-0.01,0-0.03,0-0.04c0-0.25-0.03-0.45-0.19-0.65
		c-0.14-0.17-0.37-0.28-0.61-0.28c-0.51,0-0.83,0.38-0.83,0.99C22.51,4.35,22.83,4.71,23.32,4.71z"/>
	<path d="M33.23,2.86c-0.1-0.01-0.3-0.01-0.42,0v0.79c0.07,0,0.23,0.01,0.37-0.02c0.23-0.05,0.37-0.2,0.37-0.41
		C33.55,3.02,33.44,2.89,33.23,2.86z"/>
	<path d="M17.82,3.83h0.61c-0.02-0.05-0.28-0.64-0.31-0.71C18.09,3.19,17.84,3.78,17.82,3.83z"/>
</g>
<path d="M10.77,24.93c-0.11-0.01-0.21-0.02-0.31-0.02c-0.11,0-0.22,0.01-0.32,0.02c-0.17-0.5-0.39-1.07-0.63-1.62H7.99
	c-0.21,0.53-0.43,1.05-0.59,1.62c-0.08-0.01-0.15-0.02-0.22-0.02c-0.08,0-0.14,0.01-0.21,0.02l1.87-4.18h0.14L10.77,24.93z
	 M48.73,24.93h-0.18c-0.1-0.12-0.2-0.25-0.31-0.37l-2.59-2.86h-0.06v3.23c-0.06-0.01-0.11-0.02-0.17-0.02
	c-0.06,0-0.11,0.01-0.17,0.02v-4.09h0.23l2.85,3.08h0.06v-3.08c0.05,0,0.11,0.02,0.17,0.02c0.05,0,0.11-0.01,0.17-0.02L48.73,24.93
	L48.73,24.93z M43.88,20.83c0.08,0,0.17,0.02,0.26,0.02c0.08,0,0.17-0.01,0.26-0.02v4.1c-0.1-0.01-0.18-0.02-0.26-0.02
	c-0.09,0-0.18,0.01-0.26,0.02V20.83L43.88,20.83z M41.96,24.94c-0.1-0.01-0.18-0.02-0.27-0.02s-0.18,0.01-0.26,0.02v-3.82
	c-0.6,0-0.97,0.04-1.31,0.07c0.01-0.06,0.02-0.12,0.02-0.18s-0.01-0.11-0.02-0.18h3.09c-0.01,0.07-0.02,0.12-0.02,0.18
	s0.01,0.12,0.02,0.18c-0.42-0.05-0.83-0.07-1.25-0.07V24.94L41.96,24.94z M37.1,20.83h1.27c0.92,0,1.33,0.3,1.33,0.91
	c0,0.69-0.62,1.03-1.23,1.14l1.23,1.56l0.3,0.34l0.11,0.15c-0.13-0.01-0.23-0.02-0.35-0.02c-0.11,0-0.23,0.01-0.34,0.02
	c-0.12-0.18-0.25-0.35-0.38-0.52l-0.71-0.92l-0.48-0.56h-0.23v2c-0.1-0.01-0.18-0.02-0.26-0.02c-0.09,0-0.18,0.01-0.26,0.02
	L37.1,20.83L37.1,20.83L37.1,20.83z M37.63,22.7c0.08,0.01,0.47,0.03,0.77-0.03c0.44-0.09,0.77-0.39,0.77-0.86
	c0-0.41-0.21-0.68-0.66-0.76c-0.22-0.03-0.63-0.02-0.88,0V22.7z M36.69,24.93c-0.11-0.01-0.21-0.02-0.31-0.02
	c-0.11,0-0.22,0.01-0.32,0.02c-0.17-0.5-0.39-1.07-0.63-1.62h-1.52c-0.21,0.53-0.43,1.05-0.59,1.62c-0.08-0.01-0.15-0.02-0.22-0.02
	c-0.08,0-0.14,0.01-0.21,0.02l1.87-4.18h0.14L36.69,24.93z M34.67,21.53l-0.65,1.53h1.32L34.67,21.53L34.67,21.53z M32.12,20.83
	c0.16,1.48,0.32,2.95,0.49,4.1c-0.11-0.01-0.19-0.02-0.28-0.02c-0.1,0-0.19,0.01-0.28,0.02c-0.1-1.2-0.22-2.5-0.31-3.09
	c-0.7,1.24-1.21,2.2-1.57,3.02H30.1l-0.33-0.68c-0.38-0.79-0.8-1.57-1.21-2.35c-0.13,1.17-0.29,2.35-0.29,3.09
	c-0.08-0.01-0.14-0.02-0.21-0.02c-0.08,0-0.14,0.01-0.22,0.02c0.16-0.96,0.51-3.47,0.58-4.1h0.16c0.48,0.95,1.06,2.08,1.7,3.14
	c0.57-1.03,1.12-2.07,1.73-3.14L32.12,20.83L32.12,20.83L32.12,20.83z M25.37,24.93h-0.18c-0.1-0.13-0.2-0.25-0.31-0.37l-2.59-2.86
	h-0.06v3.23c-0.06-0.01-0.11-0.02-0.17-0.02s-0.11,0.01-0.17,0.02v-4.09h0.23l2.85,3.08h0.06v-3.08c0.05,0,0.11,0.02,0.17,0.02
	c0.05,0,0.11-0.01,0.17-0.02V24.93L25.37,24.93z M16.77,22.88c0-1.31,0.98-2.14,2.22-2.14c1.13,0,2.27,0.61,2.27,2.05
	c0,1.33-0.95,2.21-2.28,2.21S16.77,24.16,16.77,22.88z M20.29,21.52c-0.3-0.38-0.77-0.58-1.25-0.58c-1.05,0-1.69,0.8-1.69,2.01
	c0,1.22,0.74,1.85,1.64,1.85c1.27,0,1.72-1.3,1.68-1.96C20.67,22.34,20.61,21.92,20.29,21.52L20.29,21.52z M15.59,24.94
	c-0.1-0.01-0.18-0.02-0.26-0.02c-0.09,0-0.18,0.01-0.26,0.02v-3.82c-0.61,0-0.97,0.04-1.31,0.07c0.01-0.06,0.02-0.12,0.02-0.18
	s-0.01-0.11-0.02-0.18h3.09c-0.01,0.07-0.02,0.12-0.02,0.18s0.01,0.12,0.02,0.18c-0.42-0.05-0.83-0.07-1.25-0.07L15.59,24.94
	L15.59,24.94L15.59,24.94z M11.19,24.12c0.23,0.38,0.5,0.62,0.97,0.62c0.48,0,0.83-0.4,0.83-0.87c0-1.11-1.88-0.62-1.88-1.98
	c0-0.77,0.61-1.15,1.33-1.15c0.29,0,0.64,0.09,0.86,0.29c-0.07,0.16-0.11,0.32-0.16,0.49h-0.06C12.96,21.2,12.7,21,12.34,21
	c-0.41,0-0.76,0.28-0.76,0.7c0,1.1,1.89,0.66,1.89,1.93c0,0.86-0.67,1.37-1.48,1.37c-0.29,0-0.77-0.13-0.98-0.35
	c0.06-0.17,0.09-0.35,0.11-0.53H11.19L11.19,24.12z M8.76,21.53L8.1,23.06h1.32L8.76,21.53z"/>
</svg>
